<svg width="49" height="49" viewBox="0 0 49 49" fill="none" xmlns="http://www.w3.org/2000/svg">
<g clip-path="url(#clip0_803_6714)">
<path d="M48.2344 46.5117H9.95312C9.63599 46.5117 9.37891 46.7688 9.37891 47.0859V48.2344C9.37891 48.5515 9.63599 48.8086 9.95312 48.8086H48.2344C48.5515 48.8086 48.8086 48.5515 48.8086 48.2344V47.0859C48.8086 46.7688 48.5515 46.5117 48.2344 46.5117Z" fill="#83D47F"/>
<path d="M12.8242 39.2383C12.6719 39.2383 12.5259 39.2988 12.4182 39.4065C12.3105 39.5142 12.25 39.6602 12.25 39.8125V45.3633H18.375V39.8125C18.375 39.6602 18.3145 39.5142 18.2068 39.4065C18.0991 39.2988 17.9531 39.2383 17.8008 39.2383H12.8242Z" fill="#83D47F"/>
<path d="M22.0117 33.1133C21.8594 33.1133 21.7134 33.1738 21.6057 33.2815C21.498 33.3892 21.4375 33.5352 21.4375 33.6875V45.3633H27.5625V33.6875C27.5625 33.5352 27.502 33.3892 27.3943 33.2815C27.2866 33.1738 27.1406 33.1133 26.9883 33.1133H22.0117Z" fill="#83D47F"/>
<path d="M31.1992 26.9883C31.0469 26.9883 30.9009 27.0488 30.7932 27.1565C30.6855 27.2642 30.625 27.4102 30.625 27.5625V45.3633H36.75V27.5625C36.75 27.4102 36.6895 27.2642 36.5818 27.1565C36.4741 27.0488 36.3281 26.9883 36.1758 26.9883H31.1992Z" fill="#83D47F"/>
<path d="M45.9375 21.4375C45.9375 21.2852 45.877 21.1392 45.7693 21.0315C45.6616 20.9238 45.5156 20.8633 45.3633 20.8633H40.3867C40.2344 20.8633 40.0884 20.9238 39.9807 21.0315C39.873 21.1392 39.8125 21.2852 39.8125 21.4375V45.3633H45.9375V21.4375Z" fill="#83D47F"/>
<path d="M27.8992 16.0996L29.4986 18.006L17.0358 28.4637C16.9191 28.5617 16.8461 28.7019 16.8328 28.8536C16.8194 29.0053 16.8668 29.1562 16.9646 29.273L18.9338 31.6204C19.0317 31.7369 19.1718 31.8097 19.3234 31.8229C19.475 31.8361 19.6257 31.7886 19.7422 31.6908L32.2059 21.2316L33.8053 23.138C33.874 23.2186 33.9637 23.2787 34.0645 23.3114C34.1653 23.3442 34.2731 23.3485 34.3761 23.3238C34.4792 23.299 34.5734 23.2463 34.6483 23.1713C34.7232 23.0964 34.7759 23.0022 34.8006 22.8992L36.5431 15.4427C36.5633 15.356 36.5631 15.2657 36.5424 15.179C36.5216 15.0923 36.481 15.0117 36.4238 14.9434C36.3665 14.8752 36.2941 14.8212 36.2124 14.7857C36.1307 14.7503 36.0418 14.7343 35.9528 14.7391L28.3081 15.1572C28.2016 15.1629 28.0988 15.1982 28.0112 15.2591C27.9236 15.3201 27.8548 15.4042 27.8123 15.502C27.7699 15.5999 27.7555 15.7076 27.7709 15.8132C27.7862 15.9187 27.8307 16.0179 27.8992 16.0996Z" fill="#83D47F"/>
<path d="M27.5625 3.63672H28.5195V4.59375C28.5195 4.74604 28.58 4.8921 28.6877 4.99978C28.7954 5.10747 28.9415 5.16797 29.0938 5.16797C29.246 5.16797 29.3921 5.10747 29.4998 4.99978C29.6075 4.8921 29.668 4.74604 29.668 4.59375V3.63672H30.625C30.7773 3.63672 30.9233 3.57622 31.031 3.46853C31.1387 3.36085 31.1992 3.21479 31.1992 3.0625C31.1992 2.91021 31.1387 2.76415 31.031 2.65647C30.9233 2.54878 30.7773 2.48828 30.625 2.48828H29.668V1.53125C29.668 1.37896 29.6075 1.2329 29.4998 1.12522C29.3921 1.01753 29.246 0.957031 29.0938 0.957031C28.9415 0.957031 28.7954 1.01753 28.6877 1.12522C28.58 1.2329 28.5195 1.37896 28.5195 1.53125V2.48828H27.5625C27.4102 2.48828 27.2642 2.54878 27.1565 2.65647C27.0488 2.76415 26.9883 2.91021 26.9883 3.0625C26.9883 3.21479 27.0488 3.36085 27.1565 3.46853C27.2642 3.57622 27.4102 3.63672 27.5625 3.63672Z" fill="#83D47F"/>
<path d="M45.1719 15.8867H46.1289V16.8438C46.1289 16.996 46.1894 17.1421 46.2971 17.2498C46.4048 17.3575 46.5508 17.418 46.7031 17.418C46.8554 17.418 47.0015 17.3575 47.1092 17.2498C47.2168 17.1421 47.2773 16.996 47.2773 16.8438V15.8867H48.2344C48.3867 15.8867 48.5327 15.8262 48.6404 15.7185C48.7481 15.6108 48.8086 15.4648 48.8086 15.3125C48.8086 15.1602 48.7481 15.0142 48.6404 14.9065C48.5327 14.7988 48.3867 14.7383 48.2344 14.7383H47.2773V13.7812C47.2773 13.629 47.2168 13.4829 47.1092 13.3752C47.0015 13.2675 46.8554 13.207 46.7031 13.207C46.5508 13.207 46.4048 13.2675 46.2971 13.3752C46.1894 13.4829 46.1289 13.629 46.1289 13.7812V14.7383H45.1719C45.0196 14.7383 44.8735 14.7988 44.7658 14.9065C44.6582 15.0142 44.5977 15.1602 44.5977 15.3125C44.5977 15.4648 44.6582 15.6108 44.7658 15.7185C44.8735 15.8262 45.0196 15.8867 45.1719 15.8867Z" fill="#83D47F"/>
<path d="M8.42188 36.1758H7.46484V35.2188C7.46484 35.0665 7.40435 34.9204 7.29666 34.8127C7.18897 34.705 7.04292 34.6445 6.89062 34.6445C6.73833 34.6445 6.59228 34.705 6.48459 34.8127C6.3769 34.9204 6.31641 35.0665 6.31641 35.2188V36.1758H5.35938C5.20708 36.1758 5.06103 36.2363 4.95334 36.344C4.84565 36.4517 4.78516 36.5977 4.78516 36.75C4.78516 36.9023 4.84565 37.0483 4.95334 37.156C5.06103 37.2637 5.20708 37.3242 5.35938 37.3242H6.31641V38.2812C6.31641 38.4335 6.3769 38.5796 6.48459 38.6873C6.59228 38.795 6.73833 38.8555 6.89062 38.8555C7.04292 38.8555 7.18897 38.795 7.29666 38.6873C7.40435 38.5796 7.46484 38.4335 7.46484 38.2812V37.3242H8.42188C8.57417 37.3242 8.72022 37.2637 8.82791 37.156C8.9356 37.0483 8.99609 36.9023 8.99609 36.75C8.99609 36.5977 8.9356 36.4517 8.82791 36.344C8.72022 36.2363 8.57417 36.1758 8.42188 36.1758Z" fill="#83D47F"/>
<path d="M18.5664 15.1211C18.5642 14.4899 18.388 13.8715 18.057 13.334C17.7261 12.7965 17.2533 12.3608 16.6906 12.0747C16.6195 12.0377 16.5568 11.9863 16.5067 11.9237C16.4567 11.8611 16.4202 11.7887 16.3998 11.7112C16.3794 11.6337 16.3755 11.5527 16.3882 11.4736C16.401 11.3944 16.4302 11.3188 16.474 11.2516C16.8142 10.7328 17.0076 10.1314 17.0334 9.51151C17.0593 8.89158 16.9168 8.27621 16.621 7.73079C16.3252 7.18536 15.8872 6.73026 15.3535 6.41382C14.8198 6.09738 14.2103 5.93143 13.5898 5.93359H13.0156C12.8633 5.93359 12.7173 5.8731 12.6096 5.76541C12.5019 5.65772 12.4414 5.51167 12.4414 5.35938V4.21094C12.4414 4.05865 12.3809 3.91259 12.2732 3.8049C12.1655 3.69722 12.0195 3.63672 11.8672 3.63672C11.7149 3.63672 11.5688 3.69722 11.4612 3.8049C11.3535 3.91259 11.293 4.05865 11.293 4.21094V5.35938C11.293 5.51167 11.2325 5.65772 11.1248 5.76541C11.0171 5.8731 10.871 5.93359 10.7188 5.93359H8.03906C7.88677 5.93359 7.74072 5.99409 7.63303 6.10178C7.52534 6.20947 7.46484 6.35552 7.46484 6.50781C7.46484 6.6601 7.52534 6.80616 7.63303 6.91385C7.74072 7.02153 7.88677 7.08203 8.03906 7.08203H9.1875C9.33979 7.08203 9.48585 7.14253 9.59353 7.25022C9.70122 7.3579 9.76172 7.50396 9.76172 7.65625V16.8438C9.76172 16.996 9.70122 17.1421 9.59353 17.2498C9.48585 17.3575 9.33979 17.418 9.1875 17.418H8.03906C7.88677 17.418 7.74072 17.4785 7.63303 17.5862C7.52534 17.6938 7.46484 17.8399 7.46484 17.9922C7.46484 18.1445 7.52534 18.2905 7.63303 18.3982C7.74072 18.5059 7.88677 18.5664 8.03906 18.5664H10.7188C10.871 18.5664 11.0171 18.6269 11.1248 18.7346C11.2325 18.8423 11.293 18.9883 11.293 19.1406V20.2891C11.293 20.4414 11.3535 20.5874 11.4612 20.6951C11.5688 20.8028 11.7149 20.8633 11.8672 20.8633C12.0195 20.8633 12.1655 20.8028 12.2732 20.6951C12.3809 20.5874 12.4414 20.4414 12.4414 20.2891V19.1406C12.4414 18.9883 12.5019 18.8423 12.6096 18.7346C12.7173 18.6269 12.8633 18.5664 13.0156 18.5664H15.1211C16.0345 18.5654 16.9103 18.2021 17.5562 17.5562C18.2021 16.9103 18.5654 16.0345 18.5664 15.1211ZM10.9102 7.65625C10.9102 7.50396 10.9707 7.3579 11.0783 7.25022C11.186 7.14253 11.3321 7.08203 11.4844 7.08203H13.5898C14.199 7.08203 14.7832 7.32402 15.214 7.75477C15.6447 8.18552 15.8867 8.76974 15.8867 9.37891C15.8867 9.98808 15.6447 10.5723 15.214 11.003C14.7832 11.4338 14.199 11.6758 13.5898 11.6758H11.4844C11.3321 11.6758 11.186 11.6153 11.0783 11.5076C10.9707 11.3999 10.9102 11.2539 10.9102 11.1016V7.65625ZM11.4844 17.418C11.3321 17.418 11.186 17.3575 11.0783 17.2498C10.9707 17.1421 10.9102 16.996 10.9102 16.8438V13.3984C10.9102 13.2461 10.9707 13.1001 11.0783 12.9924C11.186 12.8847 11.3321 12.8242 11.4844 12.8242H15.1211C15.7303 12.8242 16.3145 13.0662 16.7452 13.497C17.176 13.9277 17.418 14.5119 17.418 15.1211C17.418 15.7303 17.176 16.3145 16.7452 16.7452C16.3145 17.176 15.7303 17.418 15.1211 17.418H11.4844Z" fill="#83D47F"/>
<path d="M24.3086 12.25C24.3086 9.86504 23.6014 7.53364 22.2764 5.55061C20.9513 3.56758 19.068 2.022 16.8646 1.10932C14.6612 0.196631 12.2366 -0.0421693 9.89749 0.423114C7.55835 0.888398 5.40972 2.03687 3.72329 3.72329C2.03687 5.40972 0.888398 7.55835 0.423114 9.89749C-0.0421693 12.2366 0.196631 14.6612 1.10932 16.8646C2.022 19.068 3.56758 20.9513 5.55061 22.2764C7.53364 23.6014 9.86504 24.3086 12.25 24.3086C15.4471 24.3052 18.5122 23.0336 20.7729 20.7729C23.0336 18.5122 24.3052 15.4471 24.3086 12.25ZM10.1445 20.2891V19.7148H8.03907C7.58219 19.7148 7.14403 19.5334 6.82097 19.2103C6.49791 18.8872 6.31641 18.4491 6.31641 17.9922C6.31641 17.5353 6.49791 17.0972 6.82097 16.7741C7.14403 16.451 7.58219 16.2695 8.03907 16.2695H8.61329V8.23047H8.03907C7.58219 8.23047 7.14403 8.04898 6.82097 7.72592C6.49791 7.40286 6.31641 6.96469 6.31641 6.50782C6.31641 6.05094 6.49791 5.61278 6.82097 5.28972C7.14403 4.96666 7.58219 4.78516 8.03907 4.78516H10.1445V4.21094C10.1445 3.75407 10.326 3.3159 10.6491 2.99284C10.9722 2.66978 11.4103 2.48829 11.8672 2.48829C12.3241 2.48829 12.7622 2.66978 13.0853 2.99284C13.4084 3.3159 13.5898 3.75407 13.5898 4.21094V4.78516C14.8078 4.78638 15.9755 5.27075 16.8368 6.13198C17.698 6.99321 18.1824 8.16095 18.1836 9.37891C18.1833 10.0653 18.0276 10.7427 17.7281 11.3603C18.535 11.9143 19.1433 12.7122 19.4636 13.6372C19.7839 14.5621 19.7994 15.5653 19.5078 16.4997C19.2163 17.4341 18.633 18.2505 17.8435 18.8291C17.054 19.4077 16.0999 19.7181 15.1211 19.7148H13.5898V20.2891C13.5898 20.7459 13.4084 21.1841 13.0853 21.5072C12.7622 21.8302 12.3241 22.0117 11.8672 22.0117C11.4103 22.0117 10.9722 21.8302 10.6491 21.5072C10.326 21.1841 10.1445 20.7459 10.1445 20.2891Z" fill="#83D47F"/>
</g>
<defs>
<clipPath id="clip0_803_6714">
<rect width="49" height="49" fill="white"/>
</clipPath>
</defs>
</svg>
