<svg width="50" height="50" viewBox="0 0 50 50" fill="none" xmlns="http://www.w3.org/2000/svg">
<path fill-rule="evenodd" clip-rule="evenodd" d="M43.7494 6.25C45.6244 6.25 47.3952 7.08333 48.5827 8.54167C49.7702 10 50.2494 11.8958 49.8744 13.7292L48.041 22.875C47.0827 27.7292 42.791 31.25 37.8327 31.25H18.2077C19.0827 33.6875 21.3952 35.4167 24.0827 35.4167H41.666C42.8119 35.4167 43.7494 36.3542 43.7494 37.5C43.7494 38.6458 42.8119 39.5833 41.666 39.5833H24.0827C18.791 39.5833 14.3535 35.625 13.7285 30.375L10.8535 6C10.7285 4.95833 9.85352 4.16667 8.79102 4.16667H6.24935C5.10352 4.16667 4.16602 3.22917 4.16602 2.08333C4.16602 0.9375 5.10352 0 6.24935 0H8.79102C11.9577 0 14.6243 2.375 14.9993 5.52083L15.0827 6.25H20.6723C19.6087 8.08858 19 10.2232 19 12.5C19 19.4036 24.5964 25 31.5 25C38.4036 25 44 19.4036 44 12.5C44 10.2232 43.3913 8.08858 42.3277 6.25H43.7494ZM18.7493 50C21.041 50 22.916 48.125 22.916 45.8333C22.916 43.5417 21.041 41.6667 18.7493 41.6667C16.4577 41.6667 14.5827 43.5417 14.5827 45.8333C14.5827 48.125 16.4577 50 18.7493 50ZM37.4994 50C39.791 50 41.666 48.125 41.666 45.8333C41.666 43.5417 39.791 41.6667 37.4994 41.6667C35.2077 41.6667 33.3327 43.5417 33.3327 45.8333C33.3327 48.125 35.2077 50 37.4994 50Z" fill="#83D47F"/>
<path d="M36.9987 15C36.9968 14.4504 36.8433 13.9119 36.5552 13.4439C36.267 12.9759 35.8553 12.5964 35.3654 12.3473C35.3034 12.3152 35.2489 12.2704 35.2052 12.2159C35.1616 12.1614 35.1299 12.0983 35.1121 12.0308C35.0944 11.9633 35.0909 11.8928 35.1021 11.8239C35.1132 11.755 35.1386 11.6892 35.1767 11.6307C35.473 11.1789 35.6413 10.6553 35.6639 10.1155C35.6864 9.57566 35.5623 9.03983 35.3048 8.5649C35.0472 8.08998 34.6658 7.69369 34.2011 7.41815C33.7363 7.14261 33.2056 6.99811 32.6654 7H32.1654C32.0328 7 31.9056 6.94732 31.8118 6.85355C31.718 6.75979 31.6654 6.63261 31.6654 6.5V5.5C31.6654 5.36739 31.6127 5.24021 31.5189 5.14645C31.4251 5.05268 31.298 5 31.1654 5C31.0328 5 30.9056 5.05268 30.8118 5.14645C30.718 5.24021 30.6654 5.36739 30.6654 5.5V6.5C30.6654 6.63261 30.6127 6.75979 30.5189 6.85355C30.4251 6.94732 30.298 7 30.1654 7H27.832C27.6994 7 27.5722 7.05268 27.4785 7.14645C27.3847 7.24021 27.332 7.36739 27.332 7.5C27.332 7.63261 27.3847 7.75978 27.4785 7.85355C27.5722 7.94732 27.6994 8 27.832 8H28.832C28.9646 8 29.0918 8.05268 29.1856 8.14645C29.2794 8.24021 29.332 8.36739 29.332 8.5V16.5C29.332 16.6326 29.2794 16.7598 29.1856 16.8536C29.0918 16.9473 28.9646 17 28.832 17H27.832C27.6994 17 27.5722 17.0527 27.4785 17.1464C27.3847 17.2402 27.332 17.3674 27.332 17.5C27.332 17.6326 27.3847 17.7598 27.4785 17.8536C27.5722 17.9473 27.6994 18 27.832 18H30.1654C30.298 18 30.4251 18.0527 30.5189 18.1464C30.6127 18.2402 30.6654 18.3674 30.6654 18.5V19.5C30.6654 19.6326 30.718 19.7598 30.8118 19.8536C30.9056 19.9473 31.0328 20 31.1654 20C31.298 20 31.4251 19.9473 31.5189 19.8536C31.6127 19.7598 31.6654 19.6326 31.6654 19.5V18.5C31.6654 18.3674 31.718 18.2402 31.8118 18.1464C31.9056 18.0527 32.0328 18 32.1654 18H33.9987C34.7941 17.9991 35.5566 17.6828 36.119 17.1203C36.6815 16.5579 36.9978 15.7954 36.9987 15ZM30.332 8.5C30.332 8.36739 30.3847 8.24021 30.4785 8.14645C30.5722 8.05268 30.6994 8 30.832 8H32.6654C33.1958 8 33.7045 8.21071 34.0796 8.58579C34.4546 8.96086 34.6654 9.46957 34.6654 10C34.6654 10.5304 34.4546 11.0391 34.0796 11.4142C33.7045 11.7893 33.1958 12 32.6654 12H30.832C30.6994 12 30.5722 11.9473 30.4785 11.8536C30.3847 11.7598 30.332 11.6326 30.332 11.5V8.5ZM30.832 17C30.6994 17 30.5722 16.9473 30.4785 16.8536C30.3847 16.7598 30.332 16.6326 30.332 16.5V13.5C30.332 13.3674 30.3847 13.2402 30.4785 13.1464C30.5722 13.0527 30.6994 13 30.832 13H33.9987C34.5291 13 35.0378 13.2107 35.4129 13.5858C35.788 13.9609 35.9987 14.4696 35.9987 15C35.9987 15.5304 35.788 16.0391 35.4129 16.4142C35.0378 16.7893 34.5291 17 33.9987 17H30.832Z" fill="#83D47F"/>
<path d="M42 12.5C42 10.4233 41.3842 8.39323 40.2304 6.66652C39.0767 4.9398 37.4368 3.59399 35.5182 2.79927C33.5996 2.00455 31.4884 1.79661 29.4516 2.20176C27.4148 2.6069 25.5438 3.60693 24.0754 5.07538C22.6069 6.54383 21.6069 8.41475 21.2018 10.4516C20.7966 12.4884 21.0045 14.5996 21.7993 16.5182C22.594 18.4368 23.9398 20.0767 25.6665 21.2304C27.3932 22.3842 29.4233 23 31.5 23C34.2839 22.997 36.9528 21.8898 38.9213 19.9213C40.8898 17.9528 41.997 15.2839 42 12.5ZM29.6667 19.5V19H27.8333C27.4355 19 27.054 18.842 26.7727 18.5607C26.4914 18.2794 26.3333 17.8978 26.3333 17.5C26.3333 17.1022 26.4914 16.7206 26.7727 16.4393C27.054 16.158 27.4355 16 27.8333 16H28.3333V9H27.8333C27.4355 9 27.054 8.84197 26.7727 8.56066C26.4914 8.27936 26.3333 7.89783 26.3333 7.5C26.3333 7.10218 26.4914 6.72065 26.7727 6.43934C27.054 6.15804 27.4355 6 27.8333 6H29.6667V5.5C29.6667 5.10218 29.8247 4.72065 30.106 4.43934C30.3873 4.15804 30.7688 4 31.1667 4C31.5645 4 31.946 4.15804 32.2273 4.43934C32.5086 4.72065 32.6667 5.10218 32.6667 5.5V6C33.7272 6.00106 34.744 6.42283 35.4939 7.17275C36.2438 7.92266 36.6656 8.93946 36.6667 10C36.6664 10.5977 36.5308 11.1876 36.27 11.7253C36.9727 12.2077 37.5023 12.9025 37.7812 13.7079C38.0601 14.5133 38.0736 15.3868 37.8198 16.2004C37.5659 17.014 37.058 17.7249 36.3705 18.2287C35.6831 18.7326 34.8523 19.0029 34 19H32.6667V19.5C32.6667 19.8978 32.5086 20.2794 32.2273 20.5607C31.946 20.842 31.5645 21 31.1667 21C30.7688 21 30.3873 20.842 30.106 20.5607C29.8247 20.2794 29.6667 19.8978 29.6667 19.5Z" fill="#83D47F"/>
</svg>
