<svg width="49" height="49" viewBox="0 0 49 49" fill="none" xmlns="http://www.w3.org/2000/svg">
<g clip-path="url(#clip0_807_6830)">
<path d="M18.1732 5.46648C22.2172 4.09907 26.7712 4.09448 30.8382 5.47107C32.3128 5.95495 34.1242 6.94107 35.4304 7.7557C34.8302 9.36351 35.167 11.2424 36.4594 12.5347C38.2249 14.3018 41.0899 14.3018 42.8554 12.5347C44.6225 10.7692 44.6225 7.90423 42.8554 6.1387C41.3027 4.58601 38.9048 4.40073 37.1469 5.57673C35.6371 4.61357 33.501 3.44064 31.7079 2.85417C27.0943 1.29536 21.9033 1.29536 17.2897 2.85417C16.5685 3.09764 16.1811 3.88011 16.4261 4.60132C16.6695 5.32101 17.4489 5.70995 18.1732 5.46648Z" fill="#83D47F"/>
<path d="M30.8273 43.5272C26.7833 44.8946 22.2294 44.8992 18.1624 43.5226C16.9328 43.1199 15.0386 42.1583 13.5564 41.2839C14.1796 39.6654 13.8458 37.7636 12.5412 36.4574C10.7741 34.6919 7.91065 34.6919 6.14512 36.4574C4.37806 38.2245 4.37806 41.0879 6.14512 42.8535C7.6825 44.3909 10.0498 44.5869 11.8031 43.4476C13.466 44.4567 15.7262 45.6235 17.2926 46.1365C19.5987 46.9159 22.0242 47.3125 24.5017 47.3125C26.9793 47.3125 29.4048 46.9159 31.7109 46.1365C32.4321 45.893 32.8195 45.1105 32.5745 44.3893C32.3295 43.6696 31.5501 43.2822 30.8273 43.5272Z" fill="#83D47F"/>
<path d="M47.3156 24.4969C47.3156 22.0178 46.9205 19.5923 46.1396 17.2877C45.8946 16.565 45.1136 16.1776 44.3924 16.4241C43.6712 16.6676 43.2853 17.4501 43.5288 18.1713C44.2117 20.191 44.5593 22.321 44.5593 24.4984C44.5593 26.6758 44.2117 28.8058 43.5242 30.8378C43.0878 32.1715 42.2073 34.0381 41.3728 35.4729C39.7374 34.8037 37.7881 35.1314 36.4606 36.459C34.6935 38.2261 34.6935 41.0895 36.4606 42.855C38.2261 44.6221 41.0911 44.6221 42.8566 42.855C44.3664 41.3452 44.5746 39.0407 43.5043 37.2981C44.5103 35.6505 45.6052 33.3429 46.1396 31.7075C46.9205 29.4015 47.3156 26.976 47.3156 24.4969Z" fill="#83D47F"/>
<path d="M5.47135 30.824C4.78688 28.8027 4.44082 26.6743 4.44082 24.4969C4.44082 22.3194 4.78841 20.1895 5.47594 18.1575C5.88326 16.911 6.84335 15.0138 7.70698 13.55C9.32704 14.1778 11.2319 13.844 12.5396 12.5363C14.3051 10.7707 14.3051 7.90577 12.5396 6.14024C10.7725 4.37318 7.9091 4.37318 6.14357 6.14024C4.60773 7.67455 4.4102 10.0388 5.54485 11.7905C4.54648 13.4336 3.37966 15.6983 2.86057 17.2877C2.07963 19.5923 1.68457 22.0178 1.68457 24.4969C1.68457 26.976 2.07963 29.4015 2.86057 31.706C3.05504 32.2817 3.59098 32.6431 4.16673 32.6431C4.31373 32.6431 4.46226 32.6186 4.60926 32.5696C5.32741 32.3261 5.71482 31.5437 5.47135 30.824Z" fill="#83D47F"/>
<path d="M31 27.3333C30.9979 26.7104 30.8232 26.1002 30.4953 25.5698C30.1674 25.0393 29.6989 24.6093 29.1414 24.327C29.0709 24.2905 29.0088 24.2398 28.9592 24.178C28.9095 24.1162 28.8735 24.0448 28.8532 23.9683C28.833 23.8918 28.8291 23.8119 28.8418 23.7338C28.8544 23.6557 28.8833 23.5811 28.9267 23.5148C29.2638 23.0027 29.4554 22.4093 29.4811 21.7975C29.5067 21.1857 29.3655 20.5785 29.0724 20.0402C28.7793 19.502 28.3453 19.0529 27.8165 18.7406C27.2876 18.4283 26.6838 18.2645 26.069 18.2667H25.5C25.3491 18.2667 25.2044 18.207 25.0977 18.1007C24.991 17.9944 24.931 17.8503 24.931 17.7V16.5667C24.931 16.4164 24.8711 16.2722 24.7644 16.166C24.6577 16.0597 24.513 16 24.3621 16C24.2112 16 24.0665 16.0597 23.9597 16.166C23.853 16.2722 23.7931 16.4164 23.7931 16.5667V17.7C23.7931 17.8503 23.7332 17.9944 23.6265 18.1007C23.5198 18.207 23.375 18.2667 23.2241 18.2667H20.569C20.4181 18.2667 20.2733 18.3264 20.1666 18.4326C20.0599 18.5389 20 18.683 20 18.8333C20 18.9836 20.0599 19.1278 20.1666 19.234C20.2733 19.3403 20.4181 19.4 20.569 19.4H21.7069C21.8578 19.4 22.0025 19.4597 22.1092 19.566C22.2159 19.6722 22.2759 19.8164 22.2759 19.9667V29.0333C22.2759 29.1836 22.2159 29.3278 22.1092 29.434C22.0025 29.5403 21.8578 29.6 21.7069 29.6H20.569C20.4181 29.6 20.2733 29.6597 20.1666 29.766C20.0599 29.8722 20 30.0164 20 30.1667C20 30.317 20.0599 30.4611 20.1666 30.5674C20.2733 30.6736 20.4181 30.7333 20.569 30.7333H23.2241C23.375 30.7333 23.5198 30.793 23.6265 30.8993C23.7332 31.0056 23.7931 31.1497 23.7931 31.3V32.4333C23.7931 32.5836 23.853 32.7278 23.9597 32.834C24.0665 32.9403 24.2112 33 24.3621 33C24.513 33 24.6577 32.9403 24.7644 32.834C24.8711 32.7278 24.931 32.5836 24.931 32.4333V31.3C24.931 31.1497 24.991 31.0056 25.0977 30.8993C25.2044 30.793 25.3491 30.7333 25.5 30.7333H27.5862C28.4913 30.7323 29.359 30.3738 29.999 29.7364C30.639 29.099 30.999 28.2348 31 27.3333ZM23.4138 19.9667C23.4138 19.8164 23.4737 19.6722 23.5804 19.566C23.6871 19.4597 23.8319 19.4 23.9828 19.4H26.069C26.6726 19.4 27.2514 19.6388 27.6782 20.0639C28.1051 20.489 28.3448 21.0655 28.3448 21.6667C28.3448 22.2678 28.1051 22.8444 27.6782 23.2694C27.2514 23.6945 26.6726 23.9333 26.069 23.9333H23.9828C23.8319 23.9333 23.6871 23.8736 23.5804 23.7674C23.4737 23.6611 23.4138 23.517 23.4138 23.3667V19.9667ZM23.9828 29.6C23.8319 29.6 23.6871 29.5403 23.5804 29.434C23.4737 29.3278 23.4138 29.1836 23.4138 29.0333V25.6333C23.4138 25.483 23.4737 25.3389 23.5804 25.2326C23.6871 25.1264 23.8319 25.0667 23.9828 25.0667H27.5862C28.1898 25.0667 28.7687 25.3055 29.1955 25.7306C29.6223 26.1556 29.8621 26.7322 29.8621 27.3333C29.8621 27.9345 29.6223 28.511 29.1955 28.9361C28.7687 29.3612 28.1898 29.6 27.5862 29.6H23.9828Z" fill="#83D47F"/>
<path d="M37 24.5C37 22.0277 36.2669 19.611 34.8934 17.5554C33.5199 15.4998 31.5676 13.8976 29.2835 12.9515C26.9995 12.0054 24.4861 11.7579 22.0614 12.2402C19.6366 12.7225 17.4093 13.913 15.6612 15.6612C13.913 17.4093 12.7225 19.6366 12.2402 22.0614C11.7579 24.4861 12.0054 26.9995 12.9515 29.2835C13.8976 31.5676 15.4998 33.5199 17.5554 34.8934C19.611 36.2669 22.0277 37 24.5 37C27.8141 36.9964 30.9915 35.6783 33.3349 33.3349C35.6783 30.9915 36.9964 27.8141 37 24.5ZM22.3175 32.8333V32.2381H20.1349C19.6613 32.2381 19.2071 32.05 18.8722 31.7151C18.5373 31.3802 18.3492 30.926 18.3492 30.4524C18.3492 29.9788 18.5373 29.5246 18.8722 29.1897C19.2071 28.8548 19.6613 28.6667 20.1349 28.6667H20.7302V20.3333H20.1349C19.6613 20.3333 19.2071 20.1452 18.8722 19.8103C18.5373 19.4754 18.3492 19.0212 18.3492 18.5476C18.3492 18.074 18.5373 17.6198 18.8722 17.2849C19.2071 16.95 19.6613 16.7619 20.1349 16.7619H22.3175V16.1667C22.3175 15.6931 22.5056 15.2389 22.8405 14.904C23.1754 14.5691 23.6296 14.381 24.1032 14.381C24.5768 14.381 25.031 14.5691 25.3659 14.904C25.7008 15.2389 25.8889 15.6931 25.8889 16.1667V16.7619C27.1514 16.7632 28.3619 17.2653 29.2547 18.158C30.1474 19.0508 30.6495 20.2613 30.6508 21.5238C30.6505 22.2353 30.489 22.9376 30.1786 23.5778C31.0151 24.152 31.6456 24.9792 31.9776 25.938C32.3097 26.8967 32.3258 27.9367 32.0235 28.9053C31.7213 29.8739 31.1166 30.7201 30.2983 31.3199C29.4799 31.9197 28.4908 32.2415 27.4762 32.2381H25.8889V32.8333C25.8889 33.3069 25.7008 33.7611 25.3659 34.096C25.031 34.4309 24.5768 34.619 24.1032 34.619C23.6296 34.619 23.1754 34.4309 22.8405 34.096C22.5056 33.7611 22.3175 33.3069 22.3175 32.8333Z" fill="#83D47F"/>
<path d="M11.5742 2.67969H12.5312V3.63672C12.5312 3.78901 12.5917 3.93507 12.6994 4.04275C12.8071 4.15044 12.9532 4.21094 13.1055 4.21094C13.2578 4.21094 13.4038 4.15044 13.5115 4.04275C13.6192 3.93507 13.6797 3.78901 13.6797 3.63672V2.67969H14.6367C14.789 2.67969 14.9351 2.61919 15.0428 2.5115C15.1504 2.40382 15.2109 2.25776 15.2109 2.10547C15.2109 1.95318 15.1504 1.80712 15.0428 1.69943C14.9351 1.59175 14.789 1.53125 14.6367 1.53125H13.6797V0.574219C13.6797 0.421926 13.6192 0.275872 13.5115 0.168185C13.4038 0.0604979 13.2578 0 13.1055 0C12.9532 0 12.8071 0.0604979 12.6994 0.168185C12.5917 0.275872 12.5312 0.421926 12.5312 0.574219V1.53125H11.5742C11.4219 1.53125 11.2759 1.59175 11.1682 1.69943C11.0605 1.80712 11 1.95318 11 2.10547C11 2.25776 11.0605 2.40382 11.1682 2.5115C11.2759 2.61919 11.4219 2.67969 11.5742 2.67969Z" fill="#83D47F"/>
<path d="M45.5742 13.6797H46.5312V14.6367C46.5312 14.789 46.5917 14.9351 46.6994 15.0428C46.8071 15.1504 46.9532 15.2109 47.1055 15.2109C47.2578 15.2109 47.4038 15.1504 47.5115 15.0428C47.6192 14.9351 47.6797 14.789 47.6797 14.6367V13.6797H48.6367C48.789 13.6797 48.9351 13.6192 49.0428 13.5115C49.1504 13.4038 49.2109 13.2578 49.2109 13.1055C49.2109 12.9532 49.1504 12.8071 49.0428 12.6994C48.9351 12.5917 48.789 12.5312 48.6367 12.5312H47.6797V11.5742C47.6797 11.4219 47.6192 11.2759 47.5115 11.1682C47.4038 11.0605 47.2578 11 47.1055 11C46.9532 11 46.8071 11.0605 46.6994 11.1682C46.5917 11.2759 46.5312 11.4219 46.5312 11.5742V12.5312H45.5742C45.4219 12.5312 45.2759 12.5917 45.1682 12.6994C45.0605 12.8071 45 12.9532 45 13.1055C45 13.2578 45.0605 13.4038 45.1682 13.5115C45.2759 13.6192 45.4219 13.6797 45.5742 13.6797Z" fill="#83D47F"/>
<path d="M4.63672 35.5312H3.67969V34.5742C3.67969 34.4219 3.61919 34.2759 3.5115 34.1682C3.40382 34.0605 3.25776 34 3.10547 34C2.95318 34 2.80712 34.0605 2.69944 34.1682C2.59175 34.2759 2.53125 34.4219 2.53125 34.5742V35.5312H1.57422C1.42193 35.5312 1.27587 35.5917 1.16818 35.6994C1.0605 35.8071 1 35.9532 1 36.1055C1 36.2578 1.0605 36.4038 1.16818 36.5115C1.27587 36.6192 1.42193 36.6797 1.57422 36.6797H2.53125V37.6367C2.53125 37.789 2.59175 37.9351 2.69944 38.0428C2.80712 38.1504 2.95318 38.2109 3.10547 38.2109C3.25776 38.2109 3.40382 38.1504 3.5115 38.0428C3.61919 37.9351 3.67969 37.789 3.67969 37.6367V36.6797H4.63672C4.78901 36.6797 4.93507 36.6192 5.04275 36.5115C5.15044 36.4038 5.21094 36.2578 5.21094 36.1055C5.21094 35.9532 5.15044 35.8071 5.04275 35.6994C4.93507 35.5917 4.78901 35.5312 4.63672 35.5312Z" fill="#83D47F"/>
</g>
<defs>
<clipPath id="clip0_807_6830">
<rect width="49" height="49" fill="white"/>
</clipPath>
</defs>
</svg>
