<svg width="50" height="50" viewBox="0 0 50 50" fill="none" xmlns="http://www.w3.org/2000/svg">
<path fill-rule="evenodd" clip-rule="evenodd" d="M34.7777 15.2225C32.2756 12.7204 28.8183 11.1725 25.0001 11.1725C21.1819 11.1725 17.7246 12.7204 15.2225 15.2225C12.7204 17.7251 11.1725 21.1818 11.1725 25.0001C11.1725 28.8183 12.7204 32.2756 15.2225 34.7777C17.7246 37.2803 21.1819 38.8277 25.0001 38.8277C28.8188 38.8277 32.2756 37.2803 34.7777 34.7777C37.2798 32.2756 38.8277 28.8183 38.8277 25.0001C38.8277 21.1818 37.2798 17.7251 34.7777 15.2225ZM31.6501 18.3501C33.3522 20.0521 34.4048 22.4032 34.4048 25.0006C34.4048 27.5975 33.3522 29.949 31.6501 31.6511C29.948 33.3527 27.597 34.4058 24.9996 34.4058C22.4027 34.4058 20.0511 33.3532 18.3496 31.6511C16.6475 29.949 15.5949 27.598 15.5949 25.0006C15.5949 22.4032 16.6475 20.0521 18.3496 18.3501C20.0517 16.648 22.4027 15.5954 24.9996 15.5954C27.597 15.5954 29.948 16.648 31.6501 18.3501ZM24.9996 14.5678C27.8803 14.5678 30.4886 15.7355 32.3767 17.6235C34.2647 19.5115 35.4324 22.1198 35.4324 25.0006C35.4324 27.8813 34.2647 30.4896 32.3767 32.3777C30.4886 34.2657 27.8803 35.4334 24.9996 35.4334C22.1188 35.4334 19.5105 34.2657 17.6225 32.3777C15.7345 30.4896 14.5668 27.8813 14.5668 25.0006C14.5668 22.1198 15.7345 19.5115 17.6225 17.6235C19.5105 15.7355 22.1188 14.5678 24.9996 14.5678ZM25.0506 25.8969H24.9782C24.9652 25.8969 24.9522 25.8969 24.9397 25.8964H24.6397V25.8818C23.8293 25.8115 23.0543 25.4891 22.447 24.937C21.8548 24.3985 21.4688 23.6829 21.3756 22.8964H21.3517V22.5141C21.3517 21.5777 21.7636 20.7167 22.4543 20.0928C22.9381 19.6558 23.5329 19.3589 24.1668 19.2209L24.1746 18.4876C24.1798 17.9943 24.5824 17.5975 25.0761 17.6011C25.5704 17.6047 25.9688 18.0094 25.9636 18.5037L25.9558 19.2506C26.5397 19.3995 27.084 19.686 27.5334 20.0917C28.2214 20.7131 28.6381 21.5735 28.647 22.5063C28.6517 23.0006 28.2537 23.4042 27.7595 23.4084C27.2657 23.4126 26.8626 23.0152 26.8579 22.5214C26.8537 22.0928 26.6485 21.7032 26.334 21.4183C25.9699 21.0896 25.4881 20.9245 25.0001 20.9245C24.5095 20.9245 24.0204 21.0881 23.6537 21.4193C23.3407 21.7021 23.1444 22.0876 23.1444 22.5141V22.5948C23.1657 22.9902 23.3595 23.3469 23.6522 23.6126C24.0063 23.9344 24.4746 24.0975 24.9496 24.1037H25.022H25.0605H25.3605V24.1183C26.1709 24.1886 26.9459 24.511 27.5532 25.0631C28.1454 25.6016 28.5313 26.3172 28.6246 27.1037H28.6485V27.486C28.6485 28.4224 28.236 29.2834 27.5454 29.9073C27.061 30.3443 26.4673 30.6412 25.8329 30.7792L25.8251 31.5126C25.8199 32.0058 25.4173 32.4027 24.9235 32.399C24.4293 32.3948 24.0308 31.9907 24.036 31.4964L24.0444 30.749C23.4605 30.6001 22.9162 30.3136 22.4668 29.9079C21.7787 29.2865 21.3621 28.4261 21.3532 27.4933C21.3485 26.999 21.747 26.5948 22.2407 26.5912C22.7345 26.5876 23.1376 26.9844 23.1423 27.4782C23.1459 27.9068 23.3517 28.2964 23.6662 28.5813C24.0303 28.91 24.5126 29.0756 25.0001 29.0756C25.4907 29.0756 25.9798 28.912 26.3465 28.5803C26.6595 28.2975 26.8558 27.912 26.8558 27.486V27.4053C26.8345 27.0105 26.6402 26.6532 26.348 26.3876C25.9938 26.0662 25.5251 25.9032 25.0506 25.8969ZM44.1881 16.4053V18.8297C44.1881 19.0938 43.9741 19.3079 43.71 19.3079H37.6048C37.4574 18.9818 37.2975 18.6631 37.1261 18.3511H43.2308V16.4047C41.9204 16.1183 41.1444 14.7422 41.5892 13.4698C41.998 12.3001 43.2803 11.6818 44.4501 12.0902C46.3345 12.749 46.4803 15.3678 44.685 16.2334C44.523 16.3115 44.3563 16.3683 44.1881 16.4053ZM26.0386 7.87297C25.8563 7.96099 25.6683 8.02349 25.4782 8.06204V11.1813H24.5215V8.06151C23.1043 7.77141 22.2605 6.29537 22.7392 4.92558C23.1751 3.67818 24.5423 3.01881 25.7897 3.45474C27.0366 3.89068 27.6965 5.25787 27.2605 6.50526C27.0626 7.07089 26.6256 7.60162 26.0386 7.87297ZM39.7933 8.78443C40.3319 9.90162 39.8626 11.2448 38.7459 11.7829C38.1871 12.0521 37.5725 12.0693 37.0298 11.8797C36.2938 11.623 35.7433 11.0058 35.5756 10.2381H33.6298V14.1954C33.3215 13.949 33.0022 13.7152 32.673 13.4954V9.75995C32.673 9.49589 32.8871 9.28183 33.1511 9.28183H35.5761C35.8642 7.9636 37.2381 7.19485 38.511 7.64016C39.0537 7.82974 39.5246 8.2261 39.7933 8.78443ZM48.2136 24.0251C48.7522 25.1422 48.2824 26.4855 47.1657 27.0235C45.8569 27.6542 44.3043 26.8907 43.9954 25.4787H38.8188V24.5219H43.9959C44.2829 23.2115 45.6579 22.435 46.9308 22.8803C47.4741 23.0698 47.9444 23.4667 48.2136 24.0251ZM45.7334 34.8167C46.2709 35.935 45.7949 37.2881 44.6834 37.8146C43.5511 38.3506 42.2225 37.8787 41.6866 36.7662C41.0558 35.4573 41.8194 33.9047 43.2313 33.5959V31.6501H37.1267C37.298 31.3381 37.4579 31.0193 37.6053 30.6933H43.71C43.9741 30.6933 44.1881 30.9073 44.1881 31.1714V33.5964C44.836 33.7381 45.4412 34.1834 45.7334 34.8167ZM39.7944 39.7631C40.3313 40.8797 39.8621 42.2219 38.7459 42.7599C37.4371 43.3907 35.8845 42.6271 35.5756 41.2152H33.1511C32.8871 41.2152 32.673 41.0011 32.673 40.7365V36.5053C33.0006 36.2865 33.3183 36.0537 33.6256 35.8084L33.6298 40.2584H35.5767C35.8642 38.9448 37.2381 38.1714 38.5116 38.6167C39.0423 38.8027 39.5402 39.212 39.7944 39.7631ZM26.0386 46.4438C24.8517 47.0152 23.4095 46.5167 22.8423 45.3251C22.1683 43.9094 23.0011 42.2501 24.5215 41.9391V38.8198H25.4782V41.9396C26.8954 42.2297 27.7392 43.7058 27.2605 45.0761C27.0605 45.6474 26.6298 46.1652 26.0386 46.4438ZM10.1089 41.4777C9.7001 40.3079 10.3188 39.0256 11.4886 38.6167C12.7616 38.1719 14.136 38.9448 14.4235 40.2584H16.3699L16.3741 35.8084C16.6808 36.0537 16.9985 36.2865 17.3261 36.5053V40.737C17.3261 41.0011 17.1121 41.2157 16.848 41.2157H14.4241C14.1152 42.6277 12.5621 43.3912 11.2537 42.7605C10.6954 42.4912 10.2991 42.0209 10.1089 41.4777ZM4.16989 36.5313C3.72509 35.2584 4.49801 33.8834 5.81155 33.5964V31.1714C5.81155 30.9073 6.02562 30.6933 6.28968 30.6933H12.3938C12.5412 31.0193 12.7011 31.3381 12.8725 31.6501H6.76832V33.5959C8.16884 33.9021 8.94437 35.4287 8.31312 36.7662C7.79332 37.8683 6.44957 38.3537 5.31468 37.8141C4.75635 37.5443 4.35947 37.074 4.16989 36.5313ZM1.68916 25.7412C1.28082 24.5735 1.90062 23.2886 3.06832 22.8808C4.34176 22.4355 5.71572 23.2089 6.00322 24.5225H11.1803V25.4792H6.00374C5.69437 26.8933 4.15426 27.6506 2.83343 27.024C2.27562 26.7547 1.87874 26.2839 1.68916 25.7412ZM4.16989 14.9511C3.76155 13.7834 4.38135 12.4985 5.54905 12.0902C6.71676 11.6818 8.00166 12.3016 8.40999 13.4698C8.85478 14.7433 8.08187 16.1167 6.76832 16.4047V18.3511H12.873C12.7017 18.6631 12.5418 18.9818 12.3944 19.3079H6.2902C6.02614 19.3079 5.81207 19.0938 5.81207 18.8297V16.4053C5.0402 16.2365 4.42509 15.6813 4.16989 14.9511ZM10.1089 10.5006C9.70062 9.33287 10.3204 8.04797 11.4886 7.63964C12.7616 7.19485 14.136 7.96776 14.4235 9.28131H16.8485C17.1225 9.28131 17.3355 9.49849 17.3256 9.79693L17.3642 13.4704C17.0392 13.686 16.7235 13.9152 16.4183 14.1573L16.3772 10.2381H14.4246C14.1173 11.6443 12.5668 12.4157 11.2543 11.7829C10.6954 11.5141 10.2991 11.0438 10.1089 10.5006Z" fill="#83D47F"/>
</svg>
