<svg width="40" height="40" viewBox="0 0 40 40" fill="none" xmlns="http://www.w3.org/2000/svg">
<rect width="40" height="40" rx="6" fill="#171A24"/>
<g clip-path="url(#clip0_1235_1201)">
<path d="M20.2603 8.75302C19.9288 8.74477 19.5973 8.75302 19.2673 8.77477C17.1268 8.91502 15.1063 9.60652 13.3258 10.946V10.247C13.3243 9.83527 12.9905 9.50152 12.5788 9.50002C12.1648 9.49852 11.8273 9.83302 11.8258 10.247V12.572C11.8258 13.2403 12.6313 13.574 13.1045 13.1038C16.5688 9.64027 22.052 9.28102 25.9378 12.263C29.8235 15.245 30.8945 20.633 28.4465 24.875C25.997 29.117 20.798 30.8795 16.2725 29.0045C11.747 27.1295 9.31929 22.2088 10.5875 17.4778C10.6955 17.0773 10.457 16.6655 10.0558 16.559C9.65679 16.4503 9.24503 16.6858 9.13553 17.0848C7.67603 22.5328 10.4863 28.235 15.6965 30.3943C20.9068 32.5528 26.9233 30.5045 29.7433 25.622C32.5633 20.7395 31.3273 14.5048 26.8528 11.072C24.8953 9.56977 22.5793 8.80477 20.2603 8.75302ZM20.003 12.3245C15.7723 12.3245 12.323 15.7685 12.323 19.9985C12.323 24.2285 15.773 27.677 20.003 27.677C24.233 27.677 27.6755 24.2278 27.6755 19.9985C27.6755 15.7693 24.233 12.3245 20.003 12.3245ZM20.003 15.2863C20.417 15.2878 20.7515 15.6253 20.75 16.0393V16.1548C21.5 16.2568 22.1428 16.7218 22.484 17.369C22.676 17.7358 22.5343 18.1888 22.1668 18.3815C21.8015 18.5735 21.3478 18.4325 21.1543 18.0665C21.02 17.8108 20.7605 17.6345 20.4395 17.6345H19.742C19.2815 17.6345 18.9335 17.9825 18.9335 18.443C18.9335 18.9035 19.2815 19.2515 19.742 19.2515H20.003H20.0398H20.2625C21.5285 19.2515 22.565 20.2948 22.565 21.56C22.565 22.6588 21.7843 23.5858 20.75 23.813V23.9623C20.7485 24.374 20.4148 24.7078 20.003 24.7093C19.5883 24.7115 19.25 24.377 19.2485 23.9623V23.8453C18.5 23.7418 17.8573 23.2798 17.5168 22.634C17.3233 22.268 17.465 21.8128 17.8318 21.62C18.1993 21.4265 18.653 21.569 18.8458 21.9365C18.98 22.1923 19.2448 22.367 19.565 22.367H20.2625C20.7238 22.367 21.065 22.0205 21.065 21.56C21.065 21.0995 20.7238 20.7515 20.2625 20.7515H20.003H19.742C18.476 20.7515 17.4335 19.7083 17.4335 18.443C17.4335 17.3473 18.2165 16.421 19.2485 16.1915V16.0393C19.247 15.6223 19.5853 15.284 20.003 15.2863Z" fill="#CFA935"/>
</g>
<defs>
<clipPath id="clip0_1235_1201">
<rect width="24" height="24" fill="white" transform="translate(8 8)"/>
</clipPath>
</defs>
</svg>
