<svg width="40" height="40" viewBox="0 0 40 40" fill="none" xmlns="http://www.w3.org/2000/svg">
<rect width="40" height="40" rx="6" fill="#171A24"/>
<g clip-path="url(#clip0_1211_11305)">
<path d="M31.625 30.7812H12.875C12.7197 30.7812 12.5938 30.9072 12.5938 31.0625V31.625C12.5938 31.7803 12.7197 31.9062 12.875 31.9062H31.625C31.7803 31.9062 31.9062 31.7803 31.9062 31.625V31.0625C31.9062 30.9072 31.7803 30.7812 31.625 30.7812Z" fill="#CFA935"/>
<path d="M14.2812 27.2188C14.2067 27.2188 14.1351 27.2484 14.0824 27.3011C14.0296 27.3539 14 27.4254 14 27.5V30.2188H17V27.5C17 27.4254 16.9704 27.3539 16.9176 27.3011C16.8649 27.2484 16.7933 27.2188 16.7188 27.2188H14.2812Z" fill="#CFA935"/>
<path d="M18.7812 24.2188C18.7067 24.2188 18.6351 24.2484 18.5824 24.3011C18.5296 24.3539 18.5 24.4254 18.5 24.5V30.2188H21.5V24.5C21.5 24.4254 21.4704 24.3539 21.4176 24.3011C21.3649 24.2484 21.2933 24.2188 21.2188 24.2188H18.7812Z" fill="#CFA935"/>
<path d="M23.2812 21.2188C23.2067 21.2188 23.1351 21.2484 23.0824 21.3011C23.0296 21.3539 23 21.4254 23 21.5V30.2188H26V21.5C26 21.4254 25.9704 21.3539 25.9176 21.3011C25.8649 21.2484 25.7933 21.2188 25.7188 21.2188H23.2812Z" fill="#CFA935"/>
<path d="M30.5 18.5C30.5 18.4254 30.4704 18.3539 30.4176 18.3011C30.3649 18.2484 30.2933 18.2188 30.2188 18.2188H27.7812C27.7067 18.2188 27.6351 18.2484 27.5824 18.3011C27.5296 18.3539 27.5 18.4254 27.5 18.5V30.2188H30.5V18.5Z" fill="#CFA935"/>
<path d="M21.665 15.8855L22.4484 16.8192L16.3442 21.9413C16.287 21.9893 16.2513 22.058 16.2447 22.1323C16.2382 22.2066 16.2614 22.2805 16.3093 22.3377L17.2738 23.4875C17.3217 23.5445 17.3904 23.5802 17.4646 23.5867C17.5389 23.5931 17.6127 23.5699 17.6698 23.522L23.7744 18.3991L24.5578 19.3329C24.5915 19.3723 24.6354 19.4017 24.6848 19.4178C24.7341 19.4338 24.7869 19.4359 24.8374 19.4238C24.8879 19.4117 24.934 19.3859 24.9707 19.3492C25.0074 19.3125 25.0332 19.2663 25.0453 19.2159L25.8988 15.5637C25.9087 15.5212 25.9086 15.477 25.8984 15.4346C25.8883 15.3921 25.8684 15.3526 25.8403 15.3192C25.8123 15.2857 25.7768 15.2593 25.7368 15.2419C25.6968 15.2246 25.6532 15.2167 25.6097 15.2191L21.8653 15.4239C21.8131 15.4267 21.7628 15.444 21.7199 15.4738C21.677 15.5036 21.6433 15.5448 21.6225 15.5928C21.6017 15.6407 21.5946 15.6935 21.6022 15.7452C21.6097 15.7969 21.6314 15.8455 21.665 15.8855Z" fill="#CFA935"/>
<path d="M21.5 9.78125H21.9688V10.25C21.9688 10.3246 21.9984 10.3961 22.0511 10.4489C22.1039 10.5016 22.1754 10.5312 22.25 10.5312C22.3246 10.5312 22.3961 10.5016 22.4489 10.4489C22.5016 10.3961 22.5312 10.3246 22.5312 10.25V9.78125H23C23.0746 9.78125 23.1461 9.75162 23.1989 9.69887C23.2516 9.64613 23.2812 9.57459 23.2812 9.5C23.2812 9.42541 23.2516 9.35387 23.1989 9.30113C23.1461 9.24838 23.0746 9.21875 23 9.21875H22.5312V8.75C22.5312 8.67541 22.5016 8.60387 22.4489 8.55113C22.3961 8.49838 22.3246 8.46875 22.25 8.46875C22.1754 8.46875 22.1039 8.49838 22.0511 8.55113C21.9984 8.60387 21.9688 8.67541 21.9688 8.75V9.21875H21.5C21.4254 9.21875 21.3539 9.24838 21.3011 9.30113C21.2484 9.35387 21.2188 9.42541 21.2188 9.5C21.2188 9.57459 21.2484 9.64613 21.3011 9.69887C21.3539 9.75162 21.4254 9.78125 21.5 9.78125Z" fill="#CFA935"/>
<path d="M30.125 15.7812H30.5938V16.25C30.5938 16.3246 30.6234 16.3961 30.6761 16.4489C30.7289 16.5016 30.8004 16.5312 30.875 16.5312C30.9496 16.5312 31.0211 16.5016 31.0739 16.4489C31.1266 16.3961 31.1562 16.3246 31.1562 16.25V15.7812H31.625C31.6996 15.7812 31.7711 15.7516 31.8239 15.6989C31.8766 15.6461 31.9062 15.5746 31.9062 15.5C31.9062 15.4254 31.8766 15.3539 31.8239 15.3011C31.7711 15.2484 31.6996 15.2188 31.625 15.2188H31.1562V14.75C31.1562 14.6754 31.1266 14.6039 31.0739 14.5511C31.0211 14.4984 30.9496 14.4688 30.875 14.4688C30.8004 14.4688 30.7289 14.4984 30.6761 14.5511C30.6234 14.6039 30.5938 14.6754 30.5938 14.75V15.2188H30.125C30.0504 15.2188 29.9789 15.2484 29.9261 15.3011C29.8734 15.3539 29.8438 15.4254 29.8438 15.5C29.8438 15.5746 29.8734 15.6461 29.9261 15.6989C29.9789 15.7516 30.0504 15.7812 30.125 15.7812Z" fill="#CFA935"/>
<path d="M12.125 25.7188H11.6562V25.25C11.6562 25.1754 11.6266 25.1039 11.5739 25.0511C11.5211 24.9984 11.4496 24.9688 11.375 24.9688C11.3004 24.9688 11.2289 24.9984 11.1761 25.0511C11.1234 25.1039 11.0938 25.1754 11.0938 25.25V25.7188H10.625C10.5504 25.7188 10.4789 25.7484 10.4261 25.8011C10.3734 25.8539 10.3438 25.9254 10.3438 26C10.3438 26.0746 10.3734 26.1461 10.4261 26.1989C10.4789 26.2516 10.5504 26.2812 10.625 26.2812H11.0938V26.75C11.0938 26.8246 11.1234 26.8961 11.1761 26.9489C11.2289 27.0016 11.3004 27.0312 11.375 27.0312C11.4496 27.0312 11.5211 27.0016 11.5739 26.9489C11.6266 26.8961 11.6562 26.8246 11.6562 26.75V26.2812H12.125C12.1996 26.2812 12.2711 26.2516 12.3239 26.1989C12.3766 26.1461 12.4062 26.0746 12.4062 26C12.4062 25.9254 12.3766 25.8539 12.3239 25.8011C12.2711 25.7484 12.1996 25.7188 12.125 25.7188Z" fill="#CFA935"/>
<path d="M17.0938 15.4062C17.0927 15.0971 17.0064 14.7942 16.8443 14.5309C16.6822 14.2677 16.4506 14.0543 16.175 13.9141C16.1401 13.896 16.1095 13.8709 16.0849 13.8402C16.0604 13.8095 16.0426 13.7741 16.0326 13.7361C16.0226 13.6981 16.0206 13.6585 16.0269 13.6197C16.0331 13.5809 16.0474 13.5439 16.0689 13.511C16.2355 13.2569 16.3302 12.9623 16.3429 12.6587C16.3556 12.3551 16.2858 12.0537 16.1409 11.7865C15.996 11.5194 15.7815 11.2965 15.5201 11.1415C15.2587 10.9865 14.9602 10.9052 14.6562 10.9062H14.375C14.3004 10.9062 14.2289 10.8766 14.1761 10.8239C14.1234 10.7711 14.0938 10.6996 14.0938 10.625V10.0625C14.0938 9.98791 14.0641 9.91637 14.0114 9.86363C13.9586 9.81088 13.8871 9.78125 13.8125 9.78125C13.7379 9.78125 13.6664 9.81088 13.6136 9.86363C13.5609 9.91637 13.5312 9.98791 13.5312 10.0625V10.625C13.5312 10.6996 13.5016 10.7711 13.4489 10.8239C13.3961 10.8766 13.3246 10.9062 13.25 10.9062H11.9375C11.8629 10.9062 11.7914 10.9359 11.7386 10.9886C11.6859 11.0414 11.6562 11.1129 11.6562 11.1875C11.6562 11.2621 11.6859 11.3336 11.7386 11.3864C11.7914 11.4391 11.8629 11.4688 11.9375 11.4688H12.5C12.5746 11.4688 12.6461 11.4984 12.6989 11.5511C12.7516 11.6039 12.7812 11.6754 12.7812 11.75V16.25C12.7812 16.3246 12.7516 16.3961 12.6989 16.4489C12.6461 16.5016 12.5746 16.5312 12.5 16.5312H11.9375C11.8629 16.5312 11.7914 16.5609 11.7386 16.6136C11.6859 16.6664 11.6562 16.7379 11.6562 16.8125C11.6562 16.8871 11.6859 16.9586 11.7386 17.0114C11.7914 17.0641 11.8629 17.0938 11.9375 17.0938H13.25C13.3246 17.0938 13.3961 17.1234 13.4489 17.1761C13.5016 17.2289 13.5312 17.3004 13.5312 17.375V17.9375C13.5312 18.0121 13.5609 18.0836 13.6136 18.1364C13.6664 18.1891 13.7379 18.2188 13.8125 18.2188C13.8871 18.2188 13.9586 18.1891 14.0114 18.1364C14.0641 18.0836 14.0938 18.0121 14.0938 17.9375V17.375C14.0938 17.3004 14.1234 17.2289 14.1761 17.1761C14.2289 17.1234 14.3004 17.0938 14.375 17.0938H15.4062C15.8537 17.0933 16.2826 16.9153 16.5989 16.5989C16.9153 16.2826 17.0933 15.8537 17.0938 15.4062ZM13.3438 11.75C13.3438 11.6754 13.3734 11.6039 13.4261 11.5511C13.4789 11.4984 13.5504 11.4688 13.625 11.4688H14.6562C14.9546 11.4688 15.2408 11.5873 15.4517 11.7983C15.6627 12.0092 15.7812 12.2954 15.7812 12.5938C15.7812 12.8921 15.6627 13.1783 15.4517 13.3892C15.2408 13.6002 14.9546 13.7188 14.6562 13.7188H13.625C13.5504 13.7188 13.4789 13.6891 13.4261 13.6364C13.3734 13.5836 13.3438 13.5121 13.3438 13.4375V11.75ZM13.625 16.5312C13.5504 16.5312 13.4789 16.5016 13.4261 16.4489C13.3734 16.3961 13.3438 16.3246 13.3438 16.25V14.5625C13.3438 14.4879 13.3734 14.4164 13.4261 14.3636C13.4789 14.3109 13.5504 14.2812 13.625 14.2812H15.4062C15.7046 14.2812 15.9908 14.3998 16.2017 14.6108C16.4127 14.8217 16.5312 15.1079 16.5312 15.4062C16.5312 15.7046 16.4127 15.9908 16.2017 16.2017C15.9908 16.4127 15.7046 16.5312 15.4062 16.5312H13.625Z" fill="#CFA935"/>
<path d="M19.9063 14C19.9063 12.8319 19.5599 11.6899 18.9109 10.7187C18.2619 9.74739 17.3395 8.99037 16.2602 8.54334C15.181 8.09631 13.9935 7.97935 12.8478 8.20724C11.702 8.43513 10.6497 8.99765 9.82365 9.82365C8.99765 10.6497 8.43513 11.702 8.20724 12.8478C7.97935 13.9935 8.09631 15.181 8.54334 16.2602C8.99037 17.3395 9.74739 18.2619 10.7187 18.9109C11.6899 19.5599 12.8319 19.9063 14 19.9063C15.5659 19.9046 17.0672 19.2818 18.1745 18.1745C19.2818 17.0672 19.9046 15.5659 19.9063 14ZM12.9688 17.9375V17.6563H11.9375C11.7137 17.6563 11.4991 17.5674 11.3409 17.4091C11.1826 17.2509 11.0938 17.0363 11.0938 16.8125C11.0938 16.5887 11.1826 16.3741 11.3409 16.2159C11.4991 16.0576 11.7137 15.9688 11.9375 15.9688H12.2188V12.0313H11.9375C11.7137 12.0313 11.4991 11.9424 11.3409 11.7841C11.1826 11.6259 11.0938 11.4113 11.0938 11.1875C11.0938 10.9637 11.1826 10.7491 11.3409 10.5909C11.4991 10.4326 11.7137 10.3438 11.9375 10.3438H12.9688V10.0625C12.9688 9.83873 13.0576 9.62412 13.2159 9.46588C13.3741 9.30765 13.5887 9.21875 13.8125 9.21875C14.0363 9.21875 14.2509 9.30765 14.4091 9.46588C14.5674 9.62412 14.6563 9.83873 14.6563 10.0625V10.3438C15.2528 10.3443 15.8248 10.5816 16.2466 11.0034C16.6684 11.4252 16.9057 11.9972 16.9063 12.5938C16.9061 12.9299 16.8298 13.2617 16.6831 13.5643C17.0784 13.8356 17.3763 14.2264 17.5332 14.6794C17.6901 15.1325 17.6977 15.6238 17.5549 16.0815C17.4121 16.5391 17.1264 16.939 16.7397 17.2224C16.353 17.5058 15.8857 17.6579 15.4063 17.6563H14.6563V17.9375C14.6563 18.1613 14.5674 18.3759 14.4091 18.5341C14.2509 18.6924 14.0363 18.7813 13.8125 18.7813C13.5887 18.7813 13.3741 18.6924 13.2159 18.5341C13.0576 18.3759 12.9688 18.1613 12.9688 17.9375Z" fill="#CFA935"/>
</g>
<defs>
<clipPath id="clip0_1211_11305">
<rect width="24" height="24" fill="white" transform="translate(8 8)"/>
</clipPath>
</defs>
</svg>
