<svg width="50" height="50" viewBox="0 0 50 50" fill="none" xmlns="http://www.w3.org/2000/svg">
<g clip-path="url(#clip0_844_10999)">
<path d="M25 0.00805664C18.3718 0.0153238 12.0172 2.65158 7.33035 7.33841C2.64352 12.0252 0.00726719 18.3799 0 25.008C1.37232 58.1741 48.6327 58.1644 50 25.0078C49.9927 18.3797 47.3564 12.0251 42.6696 7.33833C37.9827 2.65154 31.6281 0.015319 25 0.00805664ZM9.92856 38.8205C10.0964 38.658 10.3214 38.568 10.5551 38.5698C10.7887 38.5717 11.0122 38.6654 11.1774 38.8306C11.3426 38.9958 11.4363 39.2193 11.4382 39.453C11.44 39.6866 11.35 39.9116 11.1875 40.0794C11.0196 40.242 10.7946 40.332 10.561 40.3301C10.3274 40.3282 10.1038 40.2346 9.93862 40.0694C9.77342 39.9042 9.67977 39.6806 9.67789 39.447C9.676 39.2134 9.76604 38.9884 9.92856 38.8205ZM24.1071 45.4277C24.1118 45.1939 24.2079 44.9714 24.3749 44.8078C24.5418 44.6441 24.7663 44.5525 25 44.5525C25.2338 44.5525 25.4582 44.6442 25.6251 44.8078C25.7921 44.9714 25.8882 45.194 25.8928 45.4277C25.8882 45.6614 25.792 45.884 25.6251 46.0476C25.4581 46.2112 25.2337 46.3029 25 46.3029C24.7662 46.3029 24.5418 46.2112 24.3748 46.0476C24.2079 45.8839 24.1118 45.6614 24.1071 45.4277ZM40.0714 40.0794C39.9034 40.2413 39.6786 40.3307 39.4454 40.3285C39.2121 40.3263 38.989 40.2327 38.8241 40.0677C38.6592 39.9028 38.5656 39.6797 38.5634 39.4465C38.5612 39.2132 38.6506 38.9884 38.8125 38.8205C38.9805 38.6586 39.2053 38.5692 39.4385 38.5714C39.6717 38.5736 39.8948 38.6672 40.0597 38.8322C40.2247 38.9971 40.3183 39.2202 40.3205 39.4534C40.3227 39.6867 40.2332 39.9115 40.0714 40.0794ZM25 42.633C20.3267 42.6294 15.8458 40.7713 12.5413 37.4667C9.23674 34.1622 7.37865 29.6813 7.37499 25.008C8.34035 1.60941 41.6688 1.62519 42.6339 25.0082C42.6282 29.6824 40.7682 34.1634 37.4622 37.4677C34.1561 40.772 29.6742 42.6297 25 42.633ZM4.58035 24.1152C4.81406 24.1199 5.03662 24.216 5.20024 24.3829C5.36386 24.5499 5.45551 24.7743 5.4555 25.0081C5.4555 25.2418 5.36384 25.4662 5.2002 25.6332C5.03657 25.8001 4.81401 25.8962 4.5803 25.9009C4.34659 25.8962 4.12404 25.8001 3.96041 25.6331C3.79679 25.4662 3.70514 25.2418 3.70515 25.008C3.70516 24.7743 3.79682 24.5498 3.96045 24.3829C4.12408 24.216 4.34664 24.1198 4.58035 24.1152ZM40.0714 11.1955C39.9034 11.3573 39.6786 11.4467 39.4454 11.4445C39.2122 11.4422 38.9892 11.3486 38.8243 11.1837C38.6594 11.0188 38.5658 10.7958 38.5636 10.5626C38.5613 10.3294 38.6507 10.1046 38.8125 9.93662C38.9805 9.77487 39.2052 9.6855 39.4384 9.68771C39.6716 9.68992 39.8947 9.78354 40.0596 9.94845C40.2245 10.1134 40.3181 10.3364 40.3203 10.5696C40.3225 10.8028 40.2331 11.0275 40.0714 11.1955ZM25.8928 4.58841C25.8882 4.82212 25.792 5.04467 25.6251 5.2083C25.4581 5.37192 25.2337 5.46357 25 5.46356C24.7662 5.46355 24.5418 5.37189 24.3748 5.20826C24.2079 5.04463 24.1118 4.82206 24.1071 4.58836C24.1118 4.35465 24.2079 4.13209 24.3749 3.96847C24.5418 3.80484 24.7663 3.7132 25 3.71321C25.2338 3.71321 25.4582 3.80487 25.6251 3.96851C25.7921 4.13214 25.8882 4.3547 25.8928 4.58841ZM9.92856 9.93662C10.0965 9.77442 10.3214 9.68466 10.5548 9.68669C10.7883 9.68871 11.0116 9.78234 11.1767 9.94742C11.3418 10.1125 11.4354 10.3358 11.4374 10.5693C11.4394 10.8027 11.3497 11.0276 11.1875 11.1955C11.0196 11.3577 10.7947 11.4475 10.5612 11.4455C10.3278 11.4435 10.1044 11.3498 9.93937 11.1847C9.77429 11.0197 9.68065 10.7963 9.67863 10.5629C9.67661 10.3294 9.76636 10.1045 9.92856 9.93662ZM46.3125 25.008C46.3091 25.2426 46.2136 25.4665 46.0465 25.6313C45.8794 25.796 45.6542 25.8884 45.4196 25.8884C45.185 25.8884 44.9598 25.796 44.7927 25.6313C44.6256 25.4665 44.5301 25.2426 44.5267 25.008C44.5301 24.7734 44.6256 24.5495 44.7927 24.3848C44.9598 24.2201 45.185 24.1277 45.4196 24.1277C45.6542 24.1277 45.8794 24.2201 46.0465 24.3848C46.2136 24.5495 46.3091 24.7734 46.3125 25.008Z" fill="#83D47F"/>
<path d="M24.9999 9.15991C20.7993 9.16572 16.7726 10.8376 13.8031 13.8087C10.8337 16.7798 9.16409 20.8075 9.16064 25.0081C10.0331 46.0256 39.9811 46.0101 40.8481 25.008C40.8441 20.806 39.1731 16.7773 36.2019 13.8061C33.2306 10.8348 29.2019 9.16387 24.9999 9.15991ZM24.9999 24.1153C31.7165 24.2695 32.4446 33.7884 25.8927 34.9902L25.8928 37.4902C25.8891 37.7246 25.7935 37.9482 25.6264 38.1127C25.4594 38.2772 25.2343 38.3694 24.9999 38.3694C24.7655 38.3694 24.5405 38.2772 24.3734 38.1127C24.2064 37.9482 24.1107 37.7246 24.1071 37.4902V34.9902C22.8268 34.7798 21.663 34.1209 20.8239 33.1313C19.9848 32.1417 19.525 30.8859 19.5267 29.5885C19.5312 29.3546 19.6272 29.1318 19.7941 28.968C19.9611 28.8042 20.1857 28.7124 20.4196 28.7124C20.6535 28.7124 20.8781 28.8042 21.045 28.968C21.212 29.1319 21.308 29.3546 21.3124 29.5885C21.3115 30.3191 21.5274 31.0335 21.9328 31.6413C22.3381 32.2491 22.9147 32.723 23.5895 33.003C24.2643 33.283 25.007 33.3565 25.7236 33.2142C26.4402 33.0718 27.0984 32.7201 27.615 32.2035C28.1316 31.6869 28.4833 31.0287 28.6256 30.3121C28.7679 29.5955 28.6944 28.8528 28.4144 28.178C28.1345 27.5032 27.6606 26.9266 27.0527 26.5213C26.4449 26.116 25.7305 25.9001 24.9999 25.901C23.6258 25.9007 22.302 25.3837 21.2914 24.4525C20.2809 23.5214 19.6575 22.2442 19.545 20.8747C19.4326 19.5051 19.8393 18.1434 20.6845 17.0599C21.5296 15.9764 22.7514 15.2503 24.1071 15.026V12.526C24.1107 12.2916 24.2064 12.068 24.3734 11.9035C24.5405 11.739 24.7655 11.6468 24.9999 11.6468C25.2343 11.6468 25.4594 11.739 25.6264 11.9035C25.7935 12.068 25.8891 12.2916 25.8928 12.526V15.026C27.1727 15.2353 28.3367 15.8924 29.1772 16.8801C30.0178 17.8678 30.4802 19.1219 30.4821 20.4188C30.4821 20.6556 30.388 20.8827 30.2205 21.0502C30.0531 21.2176 29.826 21.3117 29.5892 21.3117C29.3524 21.3117 29.1253 21.2176 28.9579 21.0502C28.7904 20.8827 28.6963 20.6556 28.6963 20.4188C28.6955 19.689 28.4783 18.9758 28.0723 18.3694C27.6663 17.7629 27.0896 17.2904 26.4152 17.0115C25.7407 16.7326 24.9988 16.6599 24.283 16.8025C23.5673 16.9451 22.9098 17.2966 22.3938 17.8127C21.8777 18.3287 21.5262 18.9862 21.3836 19.7019C21.241 20.4177 21.3137 21.1597 21.5926 21.8341C21.8715 22.5085 22.344 23.0852 22.9505 23.4912C23.5569 23.8972 24.2701 24.1144 24.9999 24.1153Z" fill="#83D47F"/>
</g>
<defs>
<clipPath id="clip0_844_10999">
<rect width="50" height="50" fill="white"/>
</clipPath>
</defs>
</svg>
