<svg width="50" height="50" viewBox="0 0 50 50" fill="none" xmlns="http://www.w3.org/2000/svg">
<path d="M7.87543 26.8281C7.93425 26.9706 8.03383 27.0926 8.16169 27.1788C8.28955 27.2649 8.44 27.3114 8.59418 27.3125H17.0707C17.176 27.3124 17.2802 27.291 17.3769 27.2493C17.4737 27.2077 17.5609 27.1468 17.6332 27.0703L22.4457 22.0234L25.7739 25.539C25.847 25.6156 25.9349 25.6765 26.0323 25.7181C26.1296 25.7597 26.2344 25.7812 26.3403 25.7812C26.4461 25.7812 26.5509 25.7597 26.6483 25.7181C26.7456 25.6765 26.8335 25.6156 26.9067 25.539L35.8911 16.2265L38.227 18.0703C38.3267 18.1476 38.4436 18.1998 38.5678 18.2222C38.692 18.2446 38.8198 18.2367 38.9402 18.1991C39.0607 18.1615 39.1703 18.0954 39.2597 18.0063C39.349 17.9172 39.4156 17.8078 39.4536 17.6875L43.0161 6.28902C43.0557 6.15895 43.061 6.0208 43.0313 5.88808C43.0016 5.75536 42.938 5.63262 42.8467 5.53185C42.7554 5.43108 42.6395 5.35572 42.5103 5.31316C42.3811 5.2706 42.2431 5.26228 42.1098 5.28902L30.2114 7.82028C30.0695 7.85216 29.9393 7.92292 29.8355 8.02463C29.7316 8.12634 29.6581 8.25497 29.6232 8.39612C29.5883 8.53726 29.5934 8.68533 29.638 8.82372C29.6825 8.96212 29.7648 9.08536 29.8754 9.17965L32.227 11.1718L27.1098 15.9531L23.3442 12.0078C23.1977 11.8582 22.9988 11.7713 22.7895 11.7656C22.6865 11.7638 22.5842 11.783 22.4889 11.8219C22.3935 11.8609 22.3071 11.9188 22.2348 11.9922L8.0473 25.9765C7.93743 26.0854 7.86243 26.2245 7.83182 26.3762C7.80122 26.5278 7.8164 26.6851 7.87543 26.8281Z" fill="#83D47F"/>
<path d="M44.2313 45.3125H7.6377C7.43049 45.3125 7.23178 45.3948 7.08527 45.5413C6.93876 45.6878 6.85645 45.8865 6.85645 46.0938C6.85645 46.301 6.93876 46.4997 7.08527 46.6462C7.23178 46.7927 7.43049 46.875 7.6377 46.875H44.2314C44.4386 46.875 44.6374 46.7926 44.7839 46.6461C44.9304 46.4996 45.0126 46.3009 45.0126 46.0937C45.0126 45.8865 44.9303 45.6878 44.7837 45.5413C44.6372 45.3948 44.4385 45.3125 44.2313 45.3125Z" fill="#83D47F"/>
<path d="M9.59375 32.8438C9.38674 32.8444 9.18837 32.9269 9.04199 33.0732C8.8956 33.2196 8.8131 33.418 8.8125 33.625V42.9922C8.81214 43.0949 8.8321 43.1966 8.87124 43.2916C8.91037 43.3865 8.9679 43.4728 9.04052 43.5454C9.11314 43.618 9.19941 43.6756 9.29436 43.7147C9.38931 43.7538 9.49106 43.7738 9.59375 43.7734H15.5938C15.6966 43.7745 15.7987 43.755 15.894 43.7161C15.9892 43.6772 16.0758 43.6197 16.1485 43.5469C16.2213 43.4742 16.2788 43.3877 16.3177 43.2924C16.3566 43.1971 16.376 43.0951 16.375 42.9922V33.625C16.3754 33.5223 16.3554 33.4206 16.3163 33.3256C16.2771 33.2307 16.2196 33.1444 16.147 33.0718C16.0744 32.9992 15.9881 32.9416 15.8932 32.9025C15.7982 32.8634 15.6965 32.8434 15.5938 32.8438H9.59375Z" fill="#83D47F"/>
<path d="M22.9375 29.4219C22.8348 29.4215 22.7331 29.4415 22.6381 29.4806C22.5432 29.5197 22.4569 29.5773 22.3843 29.6499C22.3117 29.7225 22.2542 29.8088 22.215 29.9037C22.1759 29.9987 22.1559 30.1004 22.1563 30.2031V42.9922C22.1552 43.0951 22.1747 43.1971 22.2136 43.2924C22.2525 43.3877 22.31 43.4742 22.3828 43.5469C22.4555 43.6197 22.5421 43.6772 22.6373 43.7161C22.7326 43.755 22.8347 43.7745 22.9375 43.7734H28.9375C29.0402 43.7738 29.142 43.7538 29.2369 43.7147C29.3319 43.6756 29.4182 43.618 29.4908 43.5454C29.5634 43.4728 29.6209 43.3865 29.6601 43.2916C29.6992 43.1966 29.7192 43.0949 29.7188 42.9922V30.2031C29.7182 29.9961 29.6357 29.7977 29.4893 29.6514C29.3429 29.505 29.1446 29.4225 28.9375 29.4219H22.9375Z" fill="#83D47F"/>
<path d="M42.2734 22.9219H36.2734C36.0664 22.9225 35.8681 23.005 35.7217 23.1514C35.5753 23.2977 35.4928 23.4961 35.4922 23.7031V42.9922C35.4918 43.0949 35.5118 43.1966 35.5509 43.2916C35.5901 43.3865 35.6476 43.4728 35.7202 43.5454C35.7928 43.618 35.8791 43.6756 35.974 43.7147C36.069 43.7538 36.1707 43.7738 36.2734 43.7734H42.2734C42.3761 43.7738 42.4779 43.7538 42.5728 43.7147C42.6678 43.6756 42.7541 43.618 42.8267 43.5454C42.8993 43.4728 42.9568 43.3865 42.996 43.2916C43.0351 43.1966 43.0551 43.0949 43.0547 42.9922V23.7031C43.0541 23.4961 42.9716 23.2977 42.8252 23.1514C42.6788 23.005 42.4805 22.9225 42.2734 22.9219Z" fill="#83D47F"/>
<path d="M13 10.6667C12.9986 10.3003 12.8875 9.94129 12.6788 9.62927C12.4701 9.31726 12.172 9.0643 11.8172 8.89822C11.7724 8.87678 11.7329 8.84693 11.7013 8.81059C11.6697 8.77425 11.6467 8.73222 11.6339 8.68722C11.621 8.64221 11.6185 8.59522 11.6266 8.54927C11.6346 8.50333 11.653 8.45944 11.6806 8.42044C11.8952 8.11925 12.0171 7.77017 12.0334 7.41031C12.0497 7.05044 11.9599 6.69322 11.7734 6.3766C11.5868 6.05998 11.3106 5.7958 10.9741 5.6121C10.6376 5.42841 10.2533 5.33207 9.86207 5.33333H9.5C9.40397 5.33333 9.31188 5.29821 9.24398 5.2357C9.17608 5.17319 9.13793 5.08841 9.13793 5V4.33333C9.13793 4.24493 9.09978 4.16014 9.03188 4.09763C8.96398 4.03512 8.87189 4 8.77586 4C8.67984 4 8.58774 4.03512 8.51984 4.09763C8.45194 4.16014 8.41379 4.24493 8.41379 4.33333V5C8.41379 5.08841 8.37565 5.17319 8.30775 5.2357C8.23984 5.29821 8.14775 5.33333 8.05172 5.33333H6.36207C6.26604 5.33333 6.17395 5.36845 6.10605 5.43096C6.03815 5.49348 6 5.57826 6 5.66667C6 5.75507 6.03815 5.83986 6.10605 5.90237C6.17395 5.96488 6.26604 6 6.36207 6H7.08621C7.18223 6 7.27433 6.03512 7.34223 6.09763C7.41013 6.16014 7.44828 6.24493 7.44828 6.33333V11.6667C7.44828 11.7551 7.41013 11.8399 7.34223 11.9024C7.27433 11.9649 7.18223 12 7.08621 12H6.36207C6.26604 12 6.17395 12.0351 6.10605 12.0976C6.03815 12.1601 6 12.2449 6 12.3333C6 12.4217 6.03815 12.5065 6.10605 12.569C6.17395 12.6315 6.26604 12.6667 6.36207 12.6667H8.05172C8.14775 12.6667 8.23984 12.7018 8.30775 12.7643C8.37565 12.8268 8.41379 12.9116 8.41379 13V13.6667C8.41379 13.7551 8.45194 13.8399 8.51984 13.9024C8.58774 13.9649 8.67984 14 8.77586 14C8.87189 14 8.96398 13.9649 9.03188 13.9024C9.09978 13.8399 9.13793 13.7551 9.13793 13.6667V13C9.13793 12.9116 9.17608 12.8268 9.24398 12.7643C9.31188 12.7018 9.40397 12.6667 9.5 12.6667H10.8276C11.4036 12.6661 11.9557 12.4552 12.363 12.0802C12.7703 11.7053 12.9994 11.1969 13 10.6667ZM8.17241 6.33333C8.17241 6.24493 8.21056 6.16014 8.27846 6.09763C8.34636 6.03512 8.43846 6 8.53448 6H9.86207C10.2462 6 10.6146 6.14048 10.8862 6.39052C11.1578 6.64057 11.3103 6.97971 11.3103 7.33333C11.3103 7.68696 11.1578 8.02609 10.8862 8.27614C10.6146 8.52619 10.2462 8.66667 9.86207 8.66667H8.53448C8.43846 8.66667 8.34636 8.63155 8.27846 8.56904C8.21056 8.50652 8.17241 8.42174 8.17241 8.33333V6.33333ZM8.53448 12C8.43846 12 8.34636 11.9649 8.27846 11.9024C8.21056 11.8399 8.17241 11.7551 8.17241 11.6667V9.66667C8.17241 9.57826 8.21056 9.49348 8.27846 9.43096C8.34636 9.36845 8.43846 9.33333 8.53448 9.33333H10.8276C11.2117 9.33333 11.5801 9.47381 11.8517 9.72386C12.1233 9.97391 12.2759 10.313 12.2759 10.6667C12.2759 11.0203 12.1233 11.3594 11.8517 11.6095C11.5801 11.8595 11.2117 12 10.8276 12H8.53448Z" fill="#83D47F"/>
<path d="M16 9C16 7.61553 15.5895 6.26215 14.8203 5.11101C14.0511 3.95987 12.9579 3.06266 11.6788 2.53285C10.3997 2.00303 8.99224 1.86441 7.63437 2.13451C6.2765 2.4046 5.02922 3.07129 4.05026 4.05026C3.07129 5.02922 2.4046 6.2765 2.13451 7.63437C1.86441 8.99224 2.00303 10.3997 2.53285 11.6788C3.06266 12.9579 3.95987 14.0511 5.11101 14.8203C6.26215 15.5895 7.61553 16 9 16C10.8559 15.998 12.6352 15.2599 13.9475 13.9475C15.2599 12.6352 15.998 10.8559 16 9ZM7.77778 13.6667V13.3333H6.55556C6.29034 13.3333 6.03599 13.228 5.84845 13.0404C5.66091 12.8529 5.55556 12.5986 5.55556 12.3333C5.55556 12.0681 5.66091 11.8138 5.84845 11.6262C6.03599 11.4387 6.29034 11.3333 6.55556 11.3333H6.88889V6.66667H6.55556C6.29034 6.66667 6.03599 6.56131 5.84845 6.37378C5.66091 6.18624 5.55556 5.93189 5.55556 5.66667C5.55556 5.40145 5.66091 5.1471 5.84845 4.95956C6.03599 4.77203 6.29034 4.66667 6.55556 4.66667H7.77778V4.33334C7.77778 4.06812 7.88314 3.81377 8.07067 3.62623C8.25821 3.43869 8.51256 3.33334 8.77778 3.33334C9.043 3.33334 9.29735 3.43869 9.48489 3.62623C9.67242 3.81377 9.77778 4.06812 9.77778 4.33334V4.66667C10.4848 4.66738 11.1627 4.94855 11.6626 5.4485C12.1626 5.94844 12.4437 6.62631 12.4444 7.33333C12.4443 7.73179 12.3539 8.12503 12.18 8.48356C12.6485 8.80512 13.0015 9.26833 13.1875 9.80525C13.3734 10.3422 13.3824 10.9245 13.2132 11.4669C13.0439 12.0094 12.7053 12.4833 12.247 12.8192C11.7887 13.155 11.2349 13.3352 10.6667 13.3333H9.77778V13.6667C9.77778 13.9319 9.67242 14.1862 9.48489 14.3738C9.29735 14.5613 9.043 14.6667 8.77778 14.6667C8.51256 14.6667 8.25821 14.5613 8.07067 14.3738C7.88314 14.1862 7.77778 13.9319 7.77778 13.6667Z" fill="#83D47F"/>
<path d="M27.5625 3.63672H28.5195V4.59375C28.5195 4.74604 28.58 4.8921 28.6877 4.99978C28.7954 5.10747 28.9415 5.16797 29.0938 5.16797C29.246 5.16797 29.3921 5.10747 29.4998 4.99978C29.6075 4.8921 29.668 4.74604 29.668 4.59375V3.63672H30.625C30.7773 3.63672 30.9233 3.57622 31.031 3.46853C31.1387 3.36085 31.1992 3.21479 31.1992 3.0625C31.1992 2.91021 31.1387 2.76415 31.031 2.65647C30.9233 2.54878 30.7773 2.48828 30.625 2.48828H29.668V1.53125C29.668 1.37896 29.6075 1.2329 29.4998 1.12522C29.3921 1.01753 29.246 0.957031 29.0938 0.957031C28.9415 0.957031 28.7954 1.01753 28.6877 1.12522C28.58 1.2329 28.5195 1.37896 28.5195 1.53125V2.48828H27.5625C27.4102 2.48828 27.2642 2.54878 27.1565 2.65647C27.0488 2.76415 26.9883 2.91021 26.9883 3.0625C26.9883 3.21479 27.0488 3.36085 27.1565 3.46853C27.2642 3.57622 27.4102 3.63672 27.5625 3.63672Z" fill="#83D47F"/>
<path d="M45.1719 15.8867H46.1289V16.8438C46.1289 16.996 46.1894 17.1421 46.2971 17.2498C46.4048 17.3575 46.5508 17.418 46.7031 17.418C46.8554 17.418 47.0015 17.3575 47.1092 17.2498C47.2168 17.1421 47.2773 16.996 47.2773 16.8438V15.8867H48.2344C48.3867 15.8867 48.5327 15.8262 48.6404 15.7185C48.7481 15.6108 48.8086 15.4648 48.8086 15.3125C48.8086 15.1602 48.7481 15.0142 48.6404 14.9065C48.5327 14.7988 48.3867 14.7383 48.2344 14.7383H47.2773V13.7812C47.2773 13.629 47.2168 13.4829 47.1092 13.3752C47.0015 13.2675 46.8554 13.207 46.7031 13.207C46.5508 13.207 46.4048 13.2675 46.2971 13.3752C46.1894 13.4829 46.1289 13.629 46.1289 13.7812V14.7383H45.1719C45.0196 14.7383 44.8735 14.7988 44.7658 14.9065C44.6582 15.0142 44.5977 15.1602 44.5977 15.3125C44.5977 15.4648 44.6582 15.6108 44.7658 15.7185C44.8735 15.8262 45.0196 15.8867 45.1719 15.8867Z" fill="#83D47F"/>
<path d="M5.63672 30.5312H4.67969V29.5742C4.67969 29.4219 4.61919 29.2759 4.5115 29.1682C4.40382 29.0605 4.25776 29 4.10547 29C3.95318 29 3.80712 29.0605 3.69944 29.1682C3.59175 29.2759 3.53125 29.4219 3.53125 29.5742V30.5312H2.57422C2.42193 30.5312 2.27587 30.5917 2.16818 30.6994C2.0605 30.8071 2 30.9532 2 31.1055C2 31.2578 2.0605 31.4038 2.16818 31.5115C2.27587 31.6192 2.42193 31.6797 2.57422 31.6797H3.53125V32.6367C3.53125 32.789 3.59175 32.9351 3.69944 33.0428C3.80712 33.1504 3.95318 33.2109 4.10547 33.2109C4.25776 33.2109 4.40382 33.1504 4.5115 33.0428C4.61919 32.9351 4.67969 32.789 4.67969 32.6367V31.6797H5.63672C5.78901 31.6797 5.93507 31.6192 6.04275 31.5115C6.15044 31.4038 6.21094 31.2578 6.21094 31.1055C6.21094 30.9532 6.15044 30.8071 6.04275 30.6994C5.93507 30.5917 5.78901 30.5312 5.63672 30.5312Z" fill="#83D47F"/>
</svg>
