<svg width="40" height="40" viewBox="0 0 40 40" fill="none" xmlns="http://www.w3.org/2000/svg">
<rect width="40" height="40" rx="6" fill="#171A24"/>
<g clip-path="url(#clip0_1211_17532)">
<path d="M28.25 32H29.75C30.9905 32 32 30.9905 32 29.75V17.75C32 16.5095 30.9905 15.5 29.75 15.5H28.25C27.0095 15.5 26 16.5095 26 17.75V29.75C26 30.9905 27.0095 32 28.25 32Z" fill="#CFA935"/>
<path d="M20.75 32H22.25C23.4905 32 24.5 30.9905 24.5 29.75V21.5C24.5 20.2595 23.4905 19.25 22.25 19.25H20.75C19.5095 19.25 18.5 20.2595 18.5 21.5V29.75C18.5 30.9905 19.5095 32 20.75 32Z" fill="#CFA935"/>
<path d="M13.25 32H14.75C15.9905 32 17 30.9905 17 29.75V25.25C17 24.0095 15.9905 23 14.75 23H13.25C12.0095 23 11 24.0095 11 25.25V29.75C11 30.9905 12.0095 32 13.25 32Z" fill="#CFA935"/>
<path d="M31.0355 8.76035L28.3635 8.34482C28.0632 8.29832 27.7665 8.4364 27.6079 8.69591C27.4508 8.95483 27.4639 9.28338 27.6433 9.52831L28.4302 10.6054C22.6327 15.1361 15.7489 17.7055 7.92307 18.2364C7.51071 18.2632 7.19915 18.6206 7.22555 19.0357C7.25347 19.449 7.61144 19.7611 8.0248 19.7332C16.1417 19.1823 23.2885 16.5182 29.3159 11.8178L29.8998 12.617C30.0786 12.8614 30.3877 12.9749 30.6824 12.9033C30.8294 12.8661 30.9588 12.7884 31.0576 12.6806C31.1555 12.5739 31.2229 12.4383 31.2462 12.2887L31.6617 9.61663C31.7253 9.20781 31.4449 8.82444 31.0355 8.76035Z" fill="#CFA935"/>
</g>
<defs>
<clipPath id="clip0_1211_17532">
<rect width="24" height="24" fill="white" transform="matrix(-1 0 0 1 32 8)"/>
</clipPath>
</defs>
</svg>
