<svg width="40" height="40" viewBox="0 0 40 40" fill="none" xmlns="http://www.w3.org/2000/svg">
<rect width="40" height="40" rx="6" fill="#171A24"/>
<g clip-path="url(#clip0_1211_17553)">
<path d="M11.75 32H10.25C9.0095 32 8 30.9905 8 29.75V17.75C8 16.5095 9.0095 15.5 10.25 15.5H11.75C12.9905 15.5 14 16.5095 14 17.75V29.75C14 30.9905 12.9905 32 11.75 32Z" fill="#CFA935"/>
<path d="M19.25 32H17.75C16.5095 32 15.5 30.9905 15.5 29.75V21.5C15.5 20.2595 16.5095 19.25 17.75 19.25H19.25C20.4905 19.25 21.5 20.2595 21.5 21.5V29.75C21.5 30.9905 20.4905 32 19.25 32Z" fill="#CFA935"/>
<path d="M26.75 32H25.25C24.0095 32 23 30.9905 23 29.75V25.25C23 24.0095 24.0095 23 25.25 23H26.75C27.9905 23 29 24.0095 29 25.25V29.75C29 30.9905 27.9905 32 26.75 32Z" fill="#CFA935"/>
<path d="M31.874 18.8338L30.374 16.5838C30.2053 16.3311 29.903 16.2058 29.6045 16.2643C29.3075 16.3236 29.0743 16.5553 29.015 16.8531L28.7533 18.1611C21.4955 16.9513 14.9488 13.6153 9.26751 8.20707C8.96901 7.92132 8.49501 7.93332 8.20701 8.23332C7.92126 8.53332 7.93326 9.00807 8.23326 9.29382C14.126 14.9031 20.9203 18.3688 28.4585 19.6333L28.2643 20.6038C28.205 20.9008 28.3303 21.2053 28.5823 21.3741C28.709 21.4573 28.8538 21.5001 29 21.5001C29.1448 21.5001 29.2903 21.4581 29.4163 21.3741L31.6663 19.8741C32.0105 19.6446 32.1035 19.1788 31.874 18.8338Z" fill="#CFA935"/>
</g>
<defs>
<clipPath id="clip0_1211_17553">
<rect width="24" height="24" fill="white" transform="translate(8 8)"/>
</clipPath>
</defs>
</svg>
