<svg width="40" height="40" viewBox="0 0 40 40" fill="none" xmlns="http://www.w3.org/2000/svg">
<rect width="40" height="40" rx="6" fill="#171A24"/>
<path d="M26.1826 14.3094H10.1602L10.3906 12.8238C10.4722 12.3006 10.9618 11.9406 11.485 12.0222L26.1826 14.3094ZM26.0002 20.9094C25.6693 20.9094 25.4002 21.1785 25.4002 21.5094C25.4002 21.8402 25.6693 22.1094 26.0002 22.1094C26.3311 22.1094 26.6002 21.8402 26.6002 21.5094C26.6002 21.1785 26.3311 20.9094 26.0002 20.9094ZM30.8002 15.9894V27.0294C30.8002 27.5596 30.3704 27.9894 29.8402 27.9894H10.1602C9.62999 27.9894 9.2002 27.5596 9.2002 27.0294V15.9894C9.2002 15.4592 9.62999 15.0294 10.1602 15.0294H29.8402C30.3704 15.0294 30.8002 15.4592 30.8002 15.9894ZM29.2402 18.3894C29.2402 18.1905 29.0789 18.0294 28.8802 18.0294C28.2847 18.0294 27.8002 17.5449 27.8002 16.9494C27.8002 16.7505 27.6389 16.5894 27.4402 16.5894H12.5602C12.3613 16.5894 12.2002 16.7505 12.2002 16.9494C12.2002 17.5449 11.7157 18.0294 11.1202 18.0294C10.9213 18.0294 10.7602 18.1905 10.7602 18.3894V24.6294C10.7602 24.8282 10.9213 24.9894 11.1202 24.9894C11.7157 24.9894 12.2002 25.4738 12.2002 26.0694C12.2002 26.2682 12.3613 26.4294 12.5602 26.4294H27.4402C27.6389 26.4294 27.8002 26.2682 27.8002 26.0694C27.8002 25.4738 28.2847 24.9894 28.8802 24.9894C29.0789 24.9894 29.2402 24.8282 29.2402 24.6294V18.3894ZM14.0002 20.9094C13.6694 20.9094 13.4002 21.1785 13.4002 21.5094C13.4002 21.8402 13.6694 22.1094 14.0002 22.1094C14.331 22.1094 14.6002 21.8402 14.6002 21.5094C14.6002 21.1785 14.331 20.9094 14.0002 20.9094ZM23.0002 21.5094C23.0002 23.1636 21.6544 24.5094 20.0002 24.5094C18.346 24.5094 17.0002 23.1636 17.0002 21.5094C17.0002 19.8551 18.346 18.5094 20.0002 18.5094C21.6544 18.5094 23.0002 19.8551 23.0002 21.5094ZM19.5176 20.8075V20.669C19.5176 20.5191 19.6396 20.3972 19.7896 20.3972H20.2108C20.3608 20.3972 20.4828 20.5191 20.4828 20.669C20.4828 20.8679 20.644 21.029 20.8428 21.029C21.0415 21.029 21.2028 20.8679 21.2028 20.669C21.2028 20.1733 20.836 19.765 20.3602 19.6922V19.4366C20.3602 19.2377 20.1991 19.0766 20.0002 19.0766C19.8014 19.0766 19.6402 19.2377 19.6402 19.4366V19.6922C19.1644 19.765 18.7977 20.1733 18.7977 20.669V20.8075C18.7977 21.2635 19.1067 21.6592 19.5491 21.7698L20.2768 21.9518C20.3981 21.9821 20.4828 22.0905 20.4828 22.2155V22.354C20.4828 22.504 20.3608 22.626 20.2108 22.626H19.7896C19.6396 22.626 19.5177 22.504 19.5177 22.354C19.5177 22.1552 19.3565 21.994 19.1577 21.994C18.9588 21.994 18.7977 22.1552 18.7977 22.354C18.7977 22.8499 19.1644 23.2582 19.6402 23.3309V23.6179C19.6402 23.8168 19.8014 23.9779 20.0002 23.9779C20.1991 23.9779 20.3602 23.8168 20.3602 23.6179V23.3309C20.836 23.2582 21.2028 22.8499 21.2028 22.354V22.2155C21.2028 21.7596 20.8939 21.3638 20.4514 21.2533L19.7236 21.0713C19.6023 21.0409 19.5176 20.9326 19.5176 20.8075ZM28.5202 18.7132V24.3056C27.8159 24.449 27.26 25.0052 27.1163 25.7094H12.884C12.7405 25.0052 12.1844 24.449 11.4802 24.3056V18.7132C12.1844 18.5697 12.7406 18.0136 12.884 17.3094H27.1163C27.26 18.0136 27.8159 18.5697 28.5202 18.7132ZM15.3202 21.5094C15.3202 20.7815 14.728 20.1894 14.0002 20.1894C13.2723 20.1894 12.6802 20.7815 12.6802 21.5094C12.6802 22.2372 13.2723 22.8294 14.0002 22.8294C14.728 22.8294 15.3202 22.2372 15.3202 21.5094ZM23.7202 21.5094C23.7202 19.4581 22.0515 17.7894 20.0002 17.7894C17.9489 17.7894 16.2802 19.4581 16.2802 21.5094C16.2802 23.5606 17.9489 25.2294 20.0002 25.2294C22.0515 25.2294 23.7202 23.5606 23.7202 21.5094ZM27.3202 21.5094C27.3202 20.7815 26.7279 20.1894 26.0002 20.1894C25.2725 20.1894 24.6802 20.7815 24.6802 21.5094C24.6802 22.2372 25.2725 22.8294 26.0002 22.8294C26.7279 22.8294 27.3202 22.2372 27.3202 21.5094Z" fill="#CFA935"/>
</svg>
