<svg width="14" height="15" viewBox="0 0 14 15" fill="none" xmlns="http://www.w3.org/2000/svg">
<circle cx="7" cy="7.5" r="7" fill="#ED5353"/>
<g clip-path="url(#clip0_1195_9697)">
<path d="M9.34718 9.51387L9.34718 6.21403C9.34566 6.12665 9.30988 6.04335 9.24754 5.98209C9.1852 5.92082 9.1013 5.88649 9.01389 5.88649C8.92649 5.88649 8.84259 5.92082 8.78025 5.98209C8.71791 6.04335 8.68213 6.12664 8.68061 6.21403L8.68061 8.70918L4.53555 4.56412C4.47304 4.50161 4.38825 4.46649 4.29985 4.46649C4.21144 4.46649 4.12666 4.50161 4.06415 4.56412C4.00164 4.62663 3.96652 4.71141 3.96652 4.79982C3.96652 4.88823 4.00164 4.97301 4.06415 5.03552L8.20921 9.18058L5.71406 9.18058C5.66981 9.17981 5.62584 9.18787 5.58473 9.20427C5.54362 9.22067 5.50619 9.2451 5.47463 9.27612C5.44306 9.30715 5.41798 9.34415 5.40087 9.38497C5.38375 9.42579 5.37494 9.4696 5.37494 9.51387C5.37494 9.55813 5.38375 9.60195 5.40087 9.64276C5.41798 9.68358 5.44306 9.72058 5.47463 9.75161C5.50619 9.78263 5.54362 9.80706 5.58473 9.82346C5.62584 9.83987 5.66981 9.84792 5.71406 9.84715L9.0139 9.84715C9.10228 9.84714 9.18705 9.81202 9.24955 9.74952C9.31205 9.68702 9.34716 9.60225 9.34718 9.51387Z" fill="white"/>
</g>
<defs>
<clipPath id="clip0_1195_9697">
<rect width="8" height="8" fill="white" transform="translate(6.65686 1.5) rotate(45)"/>
</clipPath>
</defs>
</svg>
