<svg width="17" height="16" viewBox="0 0 17 16" fill="none" xmlns="http://www.w3.org/2000/svg">
<circle cx="8" cy="8" r="7.5" transform="matrix(1 0 0 -1 0.961426 16)" stroke="#46CE68"/>
<g clip-path="url(#clip0_1560_775)">
<path d="M11.3086 5.98613L11.3086 9.28597C11.3071 9.37335 11.2713 9.45665 11.2089 9.51791C11.1466 9.57918 11.0627 9.61351 10.9753 9.61351C10.8879 9.61351 10.804 9.57918 10.7416 9.51791C10.6793 9.45665 10.6435 9.37335 10.642 9.28597L10.642 6.79082L6.49695 10.9359C6.43443 10.9984 6.34965 11.0335 6.26124 11.0335C6.17284 11.0335 6.08805 10.9984 6.02554 10.9359C5.96303 10.8734 5.92791 10.7886 5.92791 10.7002C5.92791 10.6118 5.96303 10.527 6.02554 10.4645L10.1706 6.31942H7.67546C7.6312 6.32019 7.58724 6.31213 7.54613 6.29573C7.50502 6.27933 7.46759 6.2549 7.43602 6.22388C7.40445 6.19285 7.37938 6.15585 7.36226 6.11503C7.34515 6.07421 7.33633 6.0304 7.33633 5.98613C7.33633 5.94187 7.34515 5.89805 7.36226 5.85724C7.37938 5.81642 7.40445 5.77942 7.43602 5.74839C7.46759 5.71737 7.50502 5.69294 7.54613 5.67654C7.58724 5.66013 7.6312 5.65208 7.67546 5.65285H10.9753C11.0637 5.65286 11.1484 5.68798 11.2109 5.75048C11.2734 5.81298 11.3086 5.89775 11.3086 5.98613Z" fill="#46CE68"/>
</g>
<defs>
<clipPath id="clip0_1560_775">
<rect width="8" height="8" fill="white" transform="matrix(0.707107 -0.707107 -0.707107 -0.707107 8.61829 14)"/>
</clipPath>
</defs>
</svg>
