<svg width="40" height="40" viewBox="0 0 40 40" fill="none" xmlns="http://www.w3.org/2000/svg">
<rect width="40" height="40" rx="6" fill="#171A24"/>
<path fill-rule="evenodd" clip-rule="evenodd" d="M20.1593 23.0242V24.8487C20.1593 24.9003 20.1849 24.9446 20.2297 24.9704L21.6575 25.7948C21.7515 25.8492 21.8684 25.7817 21.8684 25.673V23.2369L27.7619 19.8343L29.6197 20.9068C29.7688 20.9929 29.8541 21.1407 29.8541 21.3128V27.5767C29.8541 27.7489 29.7688 27.8966 29.6197 27.9827L24.195 31.1146C24.0459 31.2007 23.8753 31.2007 23.7262 31.1146L18.3015 27.9827C18.1524 27.8966 18.0671 27.7489 18.0671 27.5767V21.9082L19.741 22.8746C19.8734 22.9511 20.015 23.0009 20.1593 23.0242ZM20.5847 8.88529C20.4357 8.79922 20.265 8.79922 20.116 8.88529L14.6912 12.0173C14.5422 12.1033 14.4569 12.2511 14.4569 12.4232V18.6872C14.4569 18.8593 14.5422 19.0071 14.6912 19.0931L20.116 22.2251C20.265 22.3112 20.4357 22.3112 20.5847 22.2251L26.0095 19.0931C26.1585 19.0071 26.2439 18.8593 26.2439 18.6872V12.4232C26.2439 12.2511 26.1585 12.1033 26.0095 12.0173L24.1516 10.9447L18.2582 14.3473V16.7835C18.2582 16.8921 18.1413 16.9596 18.0472 16.9053L16.6194 16.0809C16.5747 16.0551 16.5491 16.0108 16.5491 15.9591V13.3605L22.4425 9.95793L20.5847 8.88529ZM13.7069 16.8289L12.2382 17.6768V20.2754C12.2382 20.3271 12.2638 20.3713 12.3085 20.3972L13.7363 21.2216C13.8304 21.2759 13.9473 21.2084 13.9473 21.0998V19.4166C14.0445 19.5464 14.1689 19.6576 14.3162 19.7426L17.3171 21.4752V25.9391L16.2738 26.5414C16.1247 26.6275 15.9541 26.6275 15.805 26.5414L10.3804 23.4095C10.2313 23.3234 10.146 23.1756 10.146 23.0035V16.7395C10.146 16.5674 10.2313 16.4196 10.3804 16.3336L13.7069 14.4131V16.8289Z" fill="#CFA935"/>
</svg>
