<svg width="50" height="50" viewBox="0 0 50 50" fill="none" xmlns="http://www.w3.org/2000/svg">
<path fill-rule="evenodd" clip-rule="evenodd" d="M25.3318 31.3006V35.1015C25.3318 35.2091 25.3852 35.3014 25.4783 35.3552L28.453 37.0727C28.6489 37.1858 28.8925 37.0452 28.8925 36.8189V31.7436L41.1705 24.6548L45.041 26.8894C45.3516 27.0687 45.5293 27.3765 45.5293 27.7351V40.785C45.5293 41.1436 45.3516 41.4514 45.041 41.6307L33.7395 48.1556C33.4289 48.3349 33.0734 48.3349 32.7629 48.1556L21.4613 41.6307C21.1508 41.4514 20.973 41.1436 20.973 40.785V28.9756L24.4603 30.9889C24.7361 31.1481 25.0312 31.2521 25.3318 31.3006ZM26.2181 1.84443C25.9075 1.66514 25.5521 1.66514 25.2416 1.84443L13.9399 8.36943C13.6294 8.54873 13.4517 8.85664 13.4517 9.21514V22.265C13.4517 22.6236 13.6294 22.9314 13.9399 23.1107L25.2415 29.6357C25.552 29.815 25.9075 29.815 26.2181 29.6357L37.5196 23.1107C37.8302 22.9314 38.0079 22.6236 38.0079 22.265V9.21514C38.0079 8.85654 37.8302 8.54873 37.5196 8.36943L33.6491 6.13486L21.3711 13.2236V18.299C21.3711 18.5253 21.1276 18.6658 20.9316 18.5527L17.9569 16.8353C17.8638 16.7814 17.8104 16.6892 17.8104 16.5815V11.1679L30.0885 4.0791L26.2181 1.84443ZM11.8892 18.3936L8.82939 20.1602V25.5738C8.82939 25.6814 8.88272 25.7737 8.97588 25.8275L11.9506 27.545C12.1465 27.6582 12.39 27.5176 12.39 27.2913V23.7846C12.5927 24.0551 12.8519 24.2868 13.1586 24.4639L19.4104 28.0734V37.3731L17.2369 38.628C16.9264 38.8073 16.5709 38.8073 16.2604 38.628L4.95898 32.1031C4.64844 31.9238 4.4707 31.616 4.4707 31.2574V18.2074C4.4707 17.8488 4.64844 17.541 4.95898 17.3617L11.8892 13.3606V18.3936Z" fill="#83D47F"/>
</svg>
