<svg width="40" height="40" viewBox="0 0 40 40" fill="none" xmlns="http://www.w3.org/2000/svg">
<rect width="40" height="40" rx="6" fill="#171A24"/>
<path d="M15.9611 27.4138L13.0774 30.5151C13.0513 30.5426 13.02 30.5645 12.9851 30.5795C12.9503 30.5945 12.9128 30.6022 12.8749 30.6022C12.837 30.6022 12.7995 30.5945 12.7647 30.5795C12.7298 30.5645 12.6984 30.5426 12.6724 30.5151L9.78864 27.4138C9.75353 27.3752 9.7306 27.3271 9.72274 27.2755C9.71489 27.224 9.72246 27.1712 9.7445 27.1239C9.76654 27.0766 9.80207 27.0369 9.84662 27.0097C9.89118 26.9826 9.94276 26.9692 9.99489 26.9713H11.2024V22.1488H12.8149C13.1498 23.2733 13.7461 24.3026 14.5549 25.1526V26.9713H15.7549C15.807 26.9692 15.8586 26.9826 15.9032 27.0097C15.9477 27.0369 15.9832 27.0766 16.0053 27.1239C16.0273 27.1712 16.0349 27.224 16.027 27.2755C16.0192 27.3271 15.9963 27.3752 15.9611 27.4138Z" fill="#CFA935"/>
<path d="M30.0049 13.0288H28.8049L28.8011 17.8513H27.1849C26.8502 16.7305 26.2567 15.7042 25.4524 14.855V13.0288H24.2449C24.1928 13.0309 24.1412 13.0175 24.0966 12.9903C24.0521 12.9632 24.0165 12.9235 23.9945 12.8762C23.9725 12.8289 23.9649 12.7761 23.9727 12.7245C23.9806 12.673 24.0035 12.6249 24.0386 12.5863L26.9224 9.48502C26.9484 9.45748 26.9798 9.43554 27.0147 9.42055C27.0495 9.40556 27.087 9.39783 27.1249 9.39783C27.1628 9.39783 27.2003 9.40556 27.2351 9.42055C27.27 9.43554 27.3013 9.45748 27.3274 9.48502L30.2111 12.5863C30.2463 12.6249 30.2692 12.673 30.2771 12.7245C30.2849 12.7761 30.2773 12.8289 30.2553 12.8762C30.2333 12.9235 30.1977 12.9632 30.1532 12.9903C30.1086 13.0175 30.057 13.0309 30.0049 13.0288Z" fill="#CFA935"/>
<path d="M20 15.125C19.0358 15.125 18.0933 15.4109 17.2916 15.9466C16.4899 16.4823 15.8651 17.2436 15.4961 18.1344C15.1271 19.0252 15.0306 20.0054 15.2187 20.9511C15.4068 21.8967 15.8711 22.7654 16.5529 23.4471C17.2346 24.1289 18.1033 24.5932 19.0489 24.7813C19.9946 24.9694 20.9748 24.8729 21.8656 24.5039C22.7564 24.1349 23.5177 23.5101 24.0534 22.7084C24.5891 21.9067 24.875 20.9642 24.875 20C24.8738 18.7074 24.3598 17.4682 23.4458 16.5542C22.5318 15.6402 21.2926 15.1262 20 15.125ZM20.375 22.9327V23.4208C20.375 23.5202 20.3355 23.6156 20.2652 23.6859C20.1948 23.7563 20.0995 23.7958 20 23.7958C19.9005 23.7958 19.8052 23.7563 19.7348 23.6859C19.6645 23.6156 19.625 23.5202 19.625 23.4208V22.9309C19.3501 22.8934 19.0862 22.798 18.8509 22.651C18.6155 22.504 18.414 22.3088 18.2596 22.0782C18.2335 22.0365 18.2159 21.99 18.2078 21.9414C18.1997 21.8929 18.2013 21.8432 18.2124 21.7952C18.2235 21.7473 18.2439 21.7019 18.2725 21.6619C18.3012 21.6218 18.3374 21.5878 18.3792 21.5617C18.4209 21.5356 18.4674 21.5181 18.516 21.51C18.5645 21.5019 18.6142 21.5034 18.6622 21.5145C18.7102 21.5256 18.7555 21.5461 18.7955 21.5747C18.8356 21.6033 18.8696 21.6395 18.8957 21.6813C19.0218 21.854 19.1885 21.9931 19.3811 22.0861C19.5737 22.1792 19.7863 22.2234 20 22.2148C20.672 22.2148 21.2188 21.8021 21.2188 21.2949C21.2022 21.1152 21.1341 20.944 21.0227 20.8019C20.9113 20.6599 20.7613 20.553 20.5907 20.494C20.3827 20.4153 20.1634 20.3706 19.9412 20.3618C19.6212 20.3471 19.3065 20.274 19.0127 20.1461C18.7294 20.0235 18.4868 19.823 18.3131 19.5679C18.1393 19.3128 18.0416 19.0136 18.0313 18.7051C18.0607 18.2878 18.2369 17.8945 18.5286 17.5947C18.8203 17.295 19.2087 17.1081 19.625 17.0673V16.5792C19.625 16.4798 19.6645 16.3844 19.7348 16.3141C19.8052 16.2437 19.9005 16.2042 20 16.2042C20.0995 16.2042 20.1948 16.2437 20.2652 16.3141C20.3355 16.3844 20.375 16.4798 20.375 16.5792V17.0693C20.6437 17.1067 20.9019 17.199 21.1335 17.3404C21.365 17.4818 21.565 17.6694 21.721 17.8914C21.7756 17.9745 21.7949 18.0759 21.7747 18.1733C21.7545 18.2707 21.6965 18.3561 21.6133 18.4106C21.5302 18.4652 21.4288 18.4846 21.3314 18.4644C21.234 18.4442 21.1486 18.3861 21.0941 18.303C20.9675 18.1343 20.8017 17.9989 20.6111 17.9087C20.4205 17.8185 20.2107 17.7761 20 17.7852C19.328 17.7852 18.7813 18.1979 18.7813 18.7051C18.7939 18.8733 18.8535 19.0347 18.9534 19.1707C19.0532 19.3067 19.1892 19.412 19.3459 19.4745C19.5598 19.5596 19.7868 19.6073 20.0168 19.6155C20.324 19.6306 20.6263 19.6984 20.9106 19.8158C21.2108 19.934 21.4704 20.1366 21.6582 20.399C21.8459 20.6615 21.9538 20.9726 21.9688 21.2949C21.9393 21.7122 21.7631 22.1055 21.4714 22.4053C21.1797 22.705 20.7913 22.8919 20.375 22.9327Z" fill="#CFA935"/>
<path d="M26.3976 17.8513C26.1162 17.0102 25.6717 16.2329 25.0896 15.5638C24.5076 14.8946 23.7993 14.3468 23.0054 13.9515C22.2115 13.5563 21.3474 13.3214 20.4626 13.2603C19.5779 13.1992 18.6897 13.3131 17.849 13.5955C17.0083 13.8779 16.2314 14.3232 15.5629 14.906C14.8944 15.4888 14.3474 16.1976 13.953 16.992C13.5586 17.7864 13.3247 18.6507 13.2645 19.5355C13.2044 20.4203 13.3193 21.3084 13.6026 22.1488C13.8215 22.8045 14.1416 23.422 14.5514 23.9788C15.5009 25.2809 16.8851 26.2002 18.4537 26.5703C20.0222 26.9404 21.6714 26.7368 23.1028 25.9964C24.5343 25.256 25.6534 24.0276 26.2577 22.5336C26.8621 21.0396 26.9117 19.3787 26.3976 17.8513ZM20.0001 25.625C18.8876 25.625 17.8 25.2951 16.875 24.677C15.95 24.059 15.229 23.1804 14.8033 22.1526C14.3775 21.1248 14.2661 19.9938 14.4832 18.9026C14.7002 17.8115 15.236 16.8092 16.0226 16.0225C16.8093 15.2359 17.8116 14.7001 18.9027 14.4831C19.9939 14.2661 21.1249 14.3775 22.1527 14.8032C23.1805 15.2289 24.059 15.9499 24.6771 16.8749C25.2952 17.8 25.6251 18.8875 25.6251 20C25.6233 21.4913 25.0301 22.921 23.9756 23.9755C22.9211 25.03 21.4914 25.6232 20.0001 25.625Z" fill="#CFA935"/>
</svg>
