<svg width="50" height="50" viewBox="0 0 50 50" fill="none" xmlns="http://www.w3.org/2000/svg">
<path fill-rule="evenodd" clip-rule="evenodd" d="M6.76992 31.6741L13.5186 43.5985C13.8692 44.2181 13.6492 45.0118 13.0297 45.3624L10.5632 46.7583C9.94365 47.1089 9.1499 46.8889 8.79931 46.2693L2.05068 34.345C1.70009 33.7255 1.92011 32.9317 2.53965 32.5812L5.00615 31.1853C5.62558 30.8346 6.41933 31.0547 6.76992 31.6741ZM27.9814 3.07471C33.9675 3.07471 38.82 7.92734 38.82 13.9134C38.82 19.8994 33.9674 24.752 27.9814 24.752C21.9954 24.752 17.1428 19.8993 17.1428 13.9134C17.1428 7.92734 21.9954 3.07471 27.9814 3.07471ZM32.3088 10.2149C32.0395 9.36133 31.4394 8.63047 30.6334 8.12441C30.1943 7.84873 29.6934 7.63896 29.1533 7.51338V6.94551C29.1533 6.29834 28.6286 5.77363 27.9814 5.77363C27.3343 5.77363 26.8096 6.29834 26.8096 6.94551V7.51221C26.0832 7.67988 25.429 7.99912 24.9017 8.42578C24.0334 9.12832 23.4964 10.1194 23.4964 11.2324C23.4964 12.3454 24.0334 13.3365 24.9017 14.0391C25.7005 14.6854 26.7901 15.0852 27.9814 15.0852C28.62 15.0852 29.1869 15.2855 29.5872 15.6095C29.9181 15.8771 30.1227 16.2266 30.1227 16.5942C30.1227 16.9618 29.9181 17.3112 29.5872 17.579C29.1869 17.9028 28.62 18.1032 27.9814 18.1032C27.4846 18.1032 27.0311 17.9823 26.6646 17.7762C26.3252 17.5853 26.0684 17.3294 25.9365 17.0422C25.6686 16.4557 24.9758 16.1975 24.3893 16.4654C23.8027 16.7334 23.5445 17.4262 23.8125 18.0127C24.1556 18.7604 24.7573 19.3887 25.5202 19.8179C25.9107 20.0375 26.3453 20.2068 26.8095 20.3143V20.8813C26.8095 21.5284 27.3342 22.0531 27.9813 22.0531C28.6285 22.0531 29.1532 21.5284 29.1532 20.8813V20.3146C29.8797 20.1469 30.5338 19.8276 31.0611 19.401C31.9294 18.6984 32.4664 17.7073 32.4664 16.5943C32.4664 15.4813 31.9294 14.4902 31.0611 13.7877C30.2623 13.1413 29.1726 12.7415 27.9813 12.7415C27.3428 12.7415 26.7759 12.5411 26.3756 12.2173C26.0447 11.9496 25.84 11.6001 25.84 11.2325C25.84 10.8649 26.0447 10.5155 26.3756 10.2478C26.7759 9.92383 27.3428 9.72344 27.9813 9.72344C28.523 9.72344 29.0103 9.86475 29.3882 10.102C29.7282 10.3154 29.9746 10.602 30.0748 10.9198C30.2694 11.5367 30.9273 11.879 31.5442 11.6843C32.1612 11.4897 32.5035 10.8318 32.3088 10.2149ZM9.57832 31.8779L14.697 40.9223L15.1695 40.6494L26.7408 43.7499C28.4053 44.196 30.0107 43.9853 31.4779 43.0819L47.0236 33.8266C49.2956 32.4277 48.2919 26.3052 41.4586 30.285L33.0752 34.8373C31.8475 35.5522 30.5592 35.7442 29.1563 35.5199C27.987 35.3328 25.1897 34.5505 22.3942 33.8015C21.8869 33.6655 21.5859 33.1441 21.7219 32.6368C21.8578 32.1296 22.3792 31.8285 22.8864 31.9645L30.7836 34.0804C30.8615 33.9222 30.9256 33.7508 30.9749 33.567C31.3285 32.2474 30.5182 30.9458 29.2184 30.5243C25.7165 29.8928 22.2826 28.4284 20.1798 27.7465C18.2936 27.1346 16.5488 27.8395 14.8328 28.8337L9.57832 31.8779Z" fill="#83D47F"/>
</svg>
