<svg width="40" height="40" viewBox="0 0 40 40" fill="none" xmlns="http://www.w3.org/2000/svg">
<rect width="40" height="40" rx="6" fill="#171A24"/>
<g clip-path="url(#clip0_1235_1269)">
<path d="M27.5 26C25.019 26 23 23.981 23 21.5C23 19.019 25.019 17 27.5 17H30V15C30 13.897 29.103 13 28 13H27V11C27 9.897 26.103 9 25 9H11C9.517 9 8.291 10.084 8.051 11.499C8.029 11.581 8 11.661 8 11.75V27C8 28.654 9.346 30 11 30H28C29.103 30 30 29.103 30 28V26H27.5ZM10 12C10 11.449 10.448 11 11 11H25V13H11C10.448 13 10 12.551 10 12Z" fill="#CFA935"/>
<path d="M31.25 18.5H27.5C25.846 18.5 24.5 19.846 24.5 21.5C24.5 23.154 25.846 24.5 27.5 24.5H31.25C31.664 24.5 32 24.164 32 23.75V19.25C32 18.836 31.664 18.5 31.25 18.5ZM27.5 22.5C26.948 22.5 26.5 22.052 26.5 21.5C26.5 20.948 26.948 20.5 27.5 20.5C28.052 20.5 28.5 20.948 28.5 21.5C28.5 22.052 28.052 22.5 27.5 22.5Z" fill="#CFA935"/>
</g>
<defs>
<clipPath id="clip0_1235_1269">
<rect width="24" height="24" fill="white" transform="translate(8 8)"/>
</clipPath>
</defs>
</svg>
